<svg preserveAspectRatio="none" width="100%" height="100%" overflow="visible" style="display: block;" viewBox="0 0 251 74" fill="none" xmlns="http://www.w3.org/2000/svg">
<g id="Frame" clip-path="url(#clip0_0_155)">
<path id="Vector" d="M210.632 2.60356C210.718 2.15808 210.894 1.73474 211.148 1.35891C211.403 0.983089 211.73 0.662524 212.111 0.416445C212.493 0.170365 212.919 0.00383969 213.366 -0.0731456C213.813 -0.150131 214.271 -0.13599 214.713 -0.0315711C215.154 0.0728479 215.57 0.265394 215.935 0.53452C216.3 0.803647 216.608 1.14381 216.838 1.53461C217.069 1.92541 217.218 2.3588 217.278 2.80878C217.337 3.25877 217.305 3.71608 217.183 4.1533C216.757 5.97424 206.984 32.9784 206.984 32.9784C206.984 32.9784 210.198 4.4245 210.632 2.60356Z" fill="var(--fill-0, black)"/>
<path id="Vector_2" d="M193.169 8.88C193.013 8.45219 192.945 7.99716 192.97 7.54239C192.994 7.08761 193.111 6.64252 193.312 6.23399C193.513 5.82546 193.795 5.46196 194.14 5.16544C194.486 4.86892 194.888 4.64554 195.322 4.50877C195.756 4.372 196.213 4.32468 196.666 4.36968C197.119 4.41467 197.558 4.55105 197.957 4.77057C198.356 4.99009 198.706 5.2882 198.987 5.6469C199.267 6.0056 199.472 6.41745 199.589 6.85759C200.146 8.63979 204.444 33.6448 204.444 33.6448C204.444 33.6448 193.727 10.6622 193.169 8.88Z" fill="var(--fill-0, black)"/>
<path id="Vector_3" d="M180.988 23.7885C180.338 23.2372 179.92 22.4596 179.82 21.6126C179.72 20.7655 179.944 19.9119 180.448 19.2239C180.952 18.5359 181.698 18.0646 182.535 17.9051C183.373 17.7456 184.24 17.9097 184.961 18.3644C186.463 19.4647 201.997 35.0473 201.997 35.0473C201.997 35.0473 182.491 24.8965 180.988 23.7885Z" fill="var(--fill-0, black)"/>
<path id="Vector_4" d="M181.608 41.4787C180.712 41.4787 179.854 41.1228 179.22 40.4892C178.587 39.8556 178.231 38.9963 178.231 38.1003C178.231 37.2043 178.587 36.345 179.22 35.7114C179.854 35.0778 180.712 34.7219 181.608 34.7219C183.459 34.7219 201.796 38.1158 201.796 38.1158C201.796 38.1158 183.459 41.4787 181.608 41.4787Z" fill="var(--fill-0, black)"/>
<path id="Vector_5" d="M193.045 54.8065C192.724 55.1101 192.346 55.3473 191.933 55.5046C191.521 55.6619 191.081 55.7362 190.639 55.7232C190.197 55.7103 189.763 55.6103 189.36 55.4291C188.957 55.2478 188.594 54.9889 188.291 54.667C187.679 54.0121 187.352 53.1419 187.379 52.2462C187.407 51.3505 187.787 50.5021 188.438 49.8861C189.793 48.6075 203.004 40.7814 203.004 40.7814C203.004 40.7814 194.37 53.5357 193.045 54.8065Z" fill="var(--fill-0, black)"/>
<path id="Vector_6" d="M209.121 54.6903C209.13 55.1146 209.055 55.5365 208.901 55.9318C208.747 56.3271 208.516 56.6882 208.222 56.9944C207.928 57.3005 207.577 57.5458 207.189 57.7162C206.8 57.8865 206.382 57.9787 205.958 57.9873C205.534 57.996 205.112 57.921 204.717 57.7666C204.322 57.6122 203.961 57.3814 203.655 57.0875C203.35 56.7936 203.104 56.4422 202.934 56.0535C202.764 55.6648 202.672 55.2463 202.663 54.822C202.663 53.032 205.629 41.7887 205.629 41.7887C205.629 41.7887 209.083 52.9003 209.121 54.6903Z" fill="var(--fill-0, black)"/>
<path id="Vector_7" d="M246.253 17.3183C246.66 17.1392 247.098 17.0421 247.542 17.0324C247.986 17.0227 248.428 17.1006 248.843 17.2618C249.257 17.423 249.635 17.6642 249.956 17.9717C250.277 18.2792 250.535 18.647 250.713 19.054C250.892 19.4611 250.99 19.8994 250.999 20.344C251.009 20.7885 250.931 21.2307 250.77 21.6451C250.609 22.0596 250.368 22.4382 250.06 22.7595C249.753 23.0807 249.386 23.3382 248.979 23.5173C247.252 24.2921 210.81 36.783 210.81 36.783C210.81 36.783 244.503 18.0854 246.253 17.3183Z" fill="var(--fill-0, black)"/>
<path id="Vector_8" d="M229.348 6.05948C229.636 5.70683 229.989 5.41426 230.39 5.19848C230.79 4.9827 231.229 4.84793 231.681 4.80188C232.133 4.75583 232.59 4.79939 233.026 4.93008C233.461 5.06077 233.867 5.27603 234.219 5.56356C234.898 6.18415 235.304 7.04872 235.348 7.96801C235.391 8.8873 235.069 9.7864 234.451 10.4685C233.174 11.9562 209.346 34.5359 209.346 34.5359C209.346 34.5359 228.078 7.54723 229.348 6.05948Z" fill="var(--fill-0, black)"/>
<path id="Vector_9" d="M5.16512 65.3835H1.78882V47.7629L0 47.0965V44.9192H5.16512V65.3835Z" fill="var(--fill-0, black)"/>
<path id="Vector_10" d="M40.9028 65.3835H37.4413V53.0553C37.4413 51.0484 37.1083 49.5994 36.4424 48.6928C35.7764 47.7862 34.6303 47.3368 32.9886 47.3368C31.7148 47.3066 30.4725 47.7356 29.4884 48.5456C28.6767 49.1845 28.0817 50.0585 27.7848 51.0484V65.3835H24.331V53.0553C24.331 51.0484 23.9981 49.5994 23.3243 48.6928C22.6506 47.7862 21.5123 47.3368 19.8706 47.3368C18.5991 47.3064 17.3592 47.7355 16.3782 48.5456C15.5643 49.1841 14.9667 50.058 14.6668 51.0484V65.3835H11.3369V44.9424H13.0019L14.086 47.0656C14.8085 46.2472 15.6998 45.5954 16.6985 45.1553C17.6972 44.7152 18.7795 44.4971 19.8706 44.5162C21.2371 44.5055 22.5888 44.7994 23.8277 45.3763C24.948 45.8621 25.9126 46.6477 26.6155 47.6467C27.3589 46.6645 28.3237 45.8719 29.4311 45.3333C30.5386 44.7947 31.7575 44.5254 32.9886 44.5472C38.2596 44.5472 40.8976 47.2205 40.9028 52.5671V65.3835Z" fill="var(--fill-0, black)"/>
<path id="Vector_11" d="M65.59 55.0157C65.59 58.172 64.8389 60.6955 63.3366 62.5862C61.6794 64.7093 59.2375 65.7683 56.011 65.7631C53.9018 65.7308 51.8419 65.1197 50.056 63.9964V73.721H46.7261V44.9424H48.786L49.6146 47.112C50.255 46.3882 51.0486 45.8165 51.9377 45.4383C53.1804 44.8257 54.5482 44.5101 55.9335 44.5162C59.031 44.5162 61.4394 45.4073 63.112 47.1973C64.7847 48.9872 65.59 51.5598 65.59 55.0157ZM62.1286 55.0157C62.1286 49.8964 60.0197 47.3342 55.8019 47.329C54.4304 47.3316 53.0986 47.7894 52.0151 48.6308C51.148 49.1962 50.4665 50.0047 50.056 50.9554V60.3701C52.0539 62.0954 54.0105 62.9581 55.9258 62.9581C60.061 62.9581 62.1286 60.3106 62.1286 55.0157Z" fill="var(--fill-0, black)"/>
<path id="Vector_12" d="M82.7581 45.2059L81.883 48.0419C80.9671 47.632 79.9747 47.4207 78.9713 47.422C77.7449 47.4115 76.5523 47.8248 75.595 48.592C74.7976 49.169 74.2017 49.9822 73.8914 50.9167V65.3835H70.5616V44.9424H72.3039L72.9312 47.1508C73.5747 46.4208 74.3668 45.8369 75.2543 45.4383C76.406 44.8316 77.6854 44.5075 78.9868 44.493C80.2767 44.4994 81.5547 44.741 82.7581 45.2059V45.2059Z" fill="var(--fill-0, black)"/>
<path id="Vector_13" d="M103.388 55.0699C103.388 58.4174 102.636 61.0003 101.134 62.8186C99.5337 64.7971 97.1331 65.7864 93.9324 65.7864C90.7316 65.7864 88.3439 64.7842 86.7694 62.7799C85.3084 60.946 84.5753 58.3631 84.5701 55.0312C84.5701 51.8775 85.2748 49.4057 86.6919 47.5925C88.3026 45.5261 90.7161 44.493 93.9324 44.493C97.0299 44.493 99.4176 45.5261 101.095 47.5925C102.624 49.4418 103.388 51.9343 103.388 55.0699ZM99.9261 55.0699C99.9054 49.868 97.9075 47.267 93.9324 47.267C89.9572 47.267 87.9722 49.8706 87.9774 55.0777C87.9774 57.751 88.4265 59.7269 89.3093 60.9667C90.2541 62.3615 91.8028 63.0588 93.9556 63.0588C96.1084 63.0588 97.6778 62.3615 98.6638 60.9667C99.4847 59.6804 99.8951 57.7123 99.8951 55.0622L99.9261 55.0699Z" fill="var(--fill-0, black)"/>
<path id="Vector_14" d="M125.093 44.9424L118.054 65.4067H113.269L106.299 44.9424H109.877L115.708 62.7644L121.578 44.9424H125.093Z" fill="var(--fill-0, black)"/>
<path id="Vector_15" d="M133.852 65.3835H130.483V47.7629L128.694 47.0965V44.9192H133.852V65.3835Z" fill="var(--fill-0, black)"/>
<path id="Vector_16" d="M157.346 65.3835H153.893V53.0553C153.893 49.2429 152.31 47.3368 149.146 47.3368C147.775 47.3221 146.434 47.7455 145.32 48.5456C144.424 49.1566 143.739 50.0311 143.361 51.0484V65.3835H140.031V44.9424H142.114L142.819 47.1895C143.51 46.4135 144.365 45.7997 145.32 45.3918C146.515 44.8214 147.822 44.5224 149.146 44.5162C154.613 44.5162 157.346 47.1895 157.346 52.5361V65.3835Z" fill="var(--fill-0, black)"/>
<path id="Vector_17" d="M181.399 44.9424V64.8488C181.463 66.0724 181.277 67.2964 180.851 68.4451C180.424 69.5939 179.768 70.6431 178.921 71.5282C177.269 73.1709 174.945 73.9948 171.951 74C169.504 73.9784 167.138 73.1198 165.245 71.5669L167.08 68.9634C168.418 70.1547 170.124 70.8519 171.913 70.9393C175.991 70.9393 178.033 68.8497 178.038 64.6706V63.0046C176.371 64.4033 174.258 65.1592 172.083 65.1355C170.82 65.1711 169.566 64.9254 168.41 64.4161C167.254 63.9069 166.226 63.1468 165.4 62.191C163.626 60.1195 162.697 57.4552 162.798 54.729C162.798 51.5624 163.616 49.0621 165.253 47.2283C166.889 45.3944 169.277 44.4827 172.416 44.493C174.55 44.4731 176.636 45.1325 178.371 46.3759L179.145 44.9192L181.399 44.9424ZM178.03 59.6649V49.9636C177.393 49.3696 176.68 48.864 175.908 48.4603C174.786 47.8358 173.529 47.4928 172.245 47.4607C168.157 47.4607 166.115 49.8835 166.12 54.729C166.029 56.5815 166.54 58.4138 167.576 59.9516C168.107 60.6735 168.811 61.2505 169.623 61.6296C170.434 62.0086 171.328 62.1777 172.222 62.1213C173.307 62.1069 174.379 61.8785 175.375 61.449C176.372 61.0195 177.274 60.3974 178.03 59.6184V59.6649Z" fill="var(--fill-0, black)"/>
</g>
<defs>
<clipPath id="clip0_0_155">
<rect width="251" height="74" fill="white"/>
</clipPath>
</defs>
</svg>
