<svg preserveAspectRatio="none" width="100%" height="100%" overflow="visible" style="display: block;" viewBox="0 0 714.999 486" fill="none" xmlns="http://www.w3.org/2000/svg">
<g id="Illustration" filter="url(#filter0_d_0_4)">
<g clip-path="url(#clip0_0_4)">
<path id="Vector" d="M677.041 398.304C674.375 396.131 670.874 395.316 667.492 394.66C643.891 390.076 619.672 390.076 595.63 390.076L50.1386 390.131L57.7978 393.121C48.0328 394.342 37.9036 395.689 29.6071 400.97C21.3106 406.252 15.4287 416.688 18.5933 425.989C20.0697 430.334 23.2917 433.889 26.9056 436.725C50.7977 455.516 85.7075 444.327 115.618 449.851C134.206 453.286 150.821 463.309 168.601 469.717C194.447 479.029 223.059 480.542 249.746 474.008C265.302 470.198 280.123 463.756 295.721 460.12C315.472 455.516 335.972 455.52 356.256 455.549L458.316 455.692C476.953 455.717 495.63 455.745 514.165 457.706C545.404 461.008 576.359 469.792 607.693 467.54C639.026 465.288 672.43 448.143 680.649 417.885C682.486 411.101 682.492 402.752 677.041 398.304Z" fill="var(--fill-0, #D1DEF2)"/>
<path id="Vector_2" d="M680.323 419.712L75.4457 419.216C75.4457 419.216 -30.5346 313.453 45.7311 221.53C121.997 129.606 152.301 278.287 171.433 138.814C194.277 -27.8386 463.228 -43.6273 470.511 87.1005C490.073 437.92 797.198 87.5982 680.323 419.712Z" fill="var(--fill-0, #E6EBF4)"/>
<path id="Vector_3" d="M51.1697 377.961H52.9015L52.6284 389.614H51.1697V377.961Z" fill="var(--fill-0, #5CA88D)"/>
<path id="Vector_4" d="M67.4243 371.967C68.0774 371.4 85.8916 355.212 83.7937 334.898C81.6958 314.585 64.6971 309.558 69.5242 285.893C74.3513 262.228 69.5242 245.892 54.8351 245.685C40.146 245.477 33.4308 259.708 38.8853 285.056C44.3398 310.404 20.9663 320.307 22.0963 338.878C23.3946 360.284 40.3538 395.422 67.4243 371.967Z" fill="var(--fill-0, #7AC094)"/>
<path id="Vector_5" opacity="0.2" d="M44.6604 248.859C44.9137 249.986 45.5787 251.1 46.6672 251.586C47.6706 252.034 48.8245 251.944 49.8793 251.758C51.8327 251.416 53.8059 250.685 55.8167 250.948C56.8261 251.08 57.7959 251.523 58.6924 251.969C59.6877 252.463 60.6323 253.052 61.5127 253.729C63.2208 255.014 64.6373 256.645 65.6688 258.515C66.8167 260.654 67.2145 263.012 67.2838 265.416C67.361 268.181 67.1037 270.969 67.6064 273.711C67.9409 275.54 68.5069 277.544 69.7834 278.949C70.0241 279.207 70.296 279.435 70.5929 279.626C73.3815 259.392 68.1823 245.874 54.8291 245.685C50.7977 245.627 47.3797 246.672 44.6366 248.726C44.6505 248.768 44.6505 248.807 44.6604 248.859Z" fill="var(--fill-0, #F2FAFF)"/>
<path id="Vector_6" opacity="0.15" d="M55.4565 330.468C53.416 326.716 53.3883 322.06 54.5105 318.025C55.1386 315.873 56.0014 313.795 57.0834 311.83C57.5109 311.04 58.0373 310.279 58.4252 309.46C58.7063 308.867 58.6508 308.355 58.4252 307.755C58.0294 306.716 57.4733 305.727 57.0398 304.706C56.6064 303.684 56.169 302.638 55.8068 301.577C55.0488 299.369 54.744 297.135 54.5659 294.818C54.3918 292.531 54.4749 290.165 55.2072 287.973C55.8603 286.016 57.2734 284.435 57.9779 282.52C56.814 281.806 55.7899 280.887 54.9558 279.808C54.0025 278.557 53.2266 277.182 52.6501 275.719C52.6501 278.961 52.6455 282.202 52.6363 285.443C52.6033 298.36 52.5637 311.277 52.5175 324.194C52.4898 335.704 52.4812 347.215 52.4918 358.726C52.7313 357.898 52.9866 357.075 53.2834 356.263C55.8801 348.967 60.2104 342.489 64.4081 336.03C60.6359 336.166 57.2476 333.757 55.4565 330.468Z" fill="var(--fill-0, #202234)"/>
<path id="Vector_7" opacity="0.15" d="M57.6217 378.202C55.5614 378.224 53.4794 377.878 51.6309 376.94C49.6794 375.952 48.1456 374.315 47.067 372.431C46.4222 371.309 45.9863 370.079 45.7806 368.802C45.5371 367.388 45.2838 366.055 44.3516 364.914C42.7287 362.927 39.958 362.65 37.7374 361.647C35.6553 360.707 34.0582 358.919 32.8232 357.039C31.6036 355.132 30.687 353.049 30.1059 350.863C28.8333 346.269 28.6948 341.361 29.2845 336.642C29.8288 332.283 30.9806 327.964 33.1478 324.117C35.7306 319.532 39.1248 315.44 41.5413 310.761C42.754 308.475 43.583 306.007 43.9954 303.453C44.4545 300.404 44.1676 297.331 43.4709 294.34C42.701 291.04 41.4779 287.872 40.2212 284.732C39.0232 281.829 38.0705 278.832 37.3732 275.771C37.7121 278.886 38.2168 281.98 38.8853 285.042C44.3417 310.382 20.9663 320.293 22.0963 338.864C23.2343 357.56 36.3124 386.726 57.6395 378.188L57.6217 378.202Z" fill="var(--fill-0, #202234)"/>
<path id="Vector_8" d="M71.2579 330.401C71.2374 330.381 71.2131 330.364 71.1863 330.353C71.1594 330.342 71.1306 330.336 71.1015 330.336C71.0724 330.336 71.0436 330.342 71.0168 330.353C70.99 330.364 70.9656 330.381 70.9452 330.401L52.3414 348.967V317.393L62.712 306.461C62.748 306.418 62.7662 306.363 62.763 306.307C62.7597 306.251 62.7352 306.198 62.6944 306.159C62.6536 306.121 62.5996 306.099 62.5433 306.099C62.4871 306.098 62.4328 306.119 62.3914 306.157L52.3414 316.75V288.336L59.8759 280.705C59.9124 280.662 59.9315 280.607 59.9291 280.551C59.9268 280.495 59.9033 280.442 59.8634 280.403C59.8235 280.364 59.7701 280.341 59.714 280.339C59.658 280.338 59.6034 280.357 59.5612 280.394L52.3414 287.702V263.277C52.3443 263.246 52.3408 263.215 52.331 263.186C52.3212 263.156 52.3054 263.13 52.2847 263.107C52.2639 263.084 52.2386 263.066 52.2103 263.053C52.1821 263.041 52.1516 263.034 52.1207 263.034C52.0898 263.034 52.0593 263.041 52.0311 263.053C52.0028 263.066 51.9775 263.084 51.9567 263.107C51.936 263.13 51.9202 263.156 51.9104 263.186C51.9007 263.215 51.8971 263.246 51.9 263.277V297.354L46.1606 292.48C46.1385 292.461 46.1129 292.447 46.0853 292.438C46.0578 292.429 46.0287 292.426 45.9999 292.429C45.971 292.431 45.9429 292.439 45.9172 292.452C45.8914 292.465 45.8686 292.484 45.8498 292.506C45.8311 292.528 45.8169 292.553 45.8081 292.581C45.7993 292.608 45.796 292.637 45.7984 292.666C45.8007 292.695 45.8088 292.723 45.822 292.748C45.8353 292.774 45.8535 292.797 45.8756 292.816L51.8941 297.931V330.034L40.5379 318.701C40.4955 318.664 40.4408 318.645 40.3847 318.647C40.3287 318.649 40.2755 318.672 40.2358 318.711C40.1961 318.751 40.173 318.804 40.171 318.86C40.169 318.916 40.1884 318.971 40.2252 319.013L51.902 330.656V349.512V379.096C51.9072 379.151 51.9327 379.202 51.9735 379.239C52.0143 379.276 52.0675 379.297 52.1227 379.297C52.1779 379.297 52.231 379.276 52.2718 379.239C52.3127 379.202 52.3382 379.151 52.3434 379.096V349.587L71.2658 330.703C71.3045 330.662 71.3254 330.607 71.3239 330.551C71.3224 330.494 71.2987 330.44 71.2579 330.401V330.401Z" fill="var(--fill-0, #B8DEBF)"/>
<path id="Vector_9" d="M487.914 390.113H489.648L489.374 401.766H487.914V390.113Z" fill="var(--fill-0, #5CA88D)"/>
<path id="Vector_10" d="M504.17 384.119C504.823 383.552 522.638 367.365 520.54 347.051C518.442 326.737 501.443 321.711 506.27 298.046C511.097 274.38 506.27 258.045 491.581 257.837C476.892 257.63 470.177 271.86 475.631 297.208C481.086 322.556 457.712 332.459 458.842 351.031C460.145 372.437 477.1 407.573 504.17 384.119Z" fill="var(--fill-0, #7AC094)"/>
<path id="Vector_11" opacity="0.2" d="M481.406 261.003C481.66 262.131 482.325 263.245 483.413 263.731C484.417 264.179 485.571 264.088 486.625 263.903C488.579 263.561 490.552 262.83 492.563 263.093C493.572 263.225 494.542 263.668 495.439 264.114C496.434 264.607 497.378 265.197 498.259 265.874C499.967 267.158 501.383 268.789 502.415 270.659C503.563 272.798 503.961 275.157 504.03 277.56C504.107 280.325 503.85 283.114 504.352 285.855C504.687 287.684 505.253 289.689 506.53 291.093C506.77 291.352 507.042 291.579 507.339 291.771C510.128 271.536 504.928 258.019 491.575 257.829C487.544 257.772 484.126 258.817 481.383 260.871C481.395 260.92 481.397 260.96 481.406 261.003Z" fill="var(--fill-0, #F2FAFF)"/>
<path id="Vector_12" opacity="0.15" d="M492.203 342.621C490.162 338.868 490.134 334.213 491.257 330.178C491.885 328.025 492.747 325.947 493.829 323.982C494.257 323.192 494.783 322.432 495.171 321.612C495.452 321.02 495.397 320.508 495.171 319.908C494.776 318.869 494.219 317.879 493.786 316.858C493.353 315.837 492.915 314.79 492.553 313.73C491.795 311.522 491.49 309.288 491.312 306.971C491.138 304.684 491.221 302.318 491.953 300.125C492.606 298.168 494.019 296.588 494.724 294.672C493.56 293.959 492.536 293.04 491.702 291.96C490.745 290.705 489.967 289.324 489.39 287.856C489.39 291.098 489.386 294.339 489.376 297.58C489.342 310.497 489.303 323.413 489.258 336.33C489.23 347.841 489.221 359.352 489.232 370.862C489.471 370.035 489.727 369.211 490.024 368.4C492.62 361.104 496.951 354.625 501.148 348.167C497.382 348.319 493.994 345.909 492.203 342.621Z" fill="var(--fill-0, #202234)"/>
<path id="Vector_13" opacity="0.15" d="M494.368 390.354C492.307 390.376 490.225 390.03 488.377 389.092C486.426 388.105 484.892 386.467 483.813 384.583C483.168 383.461 482.732 382.232 482.527 380.955C482.283 379.541 482.03 378.208 481.098 377.066C479.475 375.079 476.704 374.803 474.483 373.799C472.401 372.859 470.804 371.072 469.569 369.192C468.35 367.285 467.433 365.202 466.852 363.016C465.579 358.421 465.441 353.513 466.031 348.795C466.575 344.436 467.727 340.117 469.894 336.269C472.477 331.685 475.871 327.593 478.287 322.914C479.5 320.628 480.329 318.159 480.742 315.606C481.201 312.556 480.914 309.483 480.217 306.493C479.447 303.193 478.224 300.025 476.965 296.884C475.767 293.982 474.815 290.984 474.117 287.923C474.456 291.038 474.961 294.133 475.629 297.194C481.086 322.535 457.71 332.445 458.84 351.017C459.978 369.713 473.057 398.879 494.384 390.341L494.368 390.354Z" fill="var(--fill-0, #202234)"/>
<path id="Vector_14" d="M508.004 342.554C507.984 342.533 507.959 342.517 507.932 342.506C507.905 342.494 507.877 342.489 507.848 342.489C507.819 342.489 507.79 342.494 507.763 342.506C507.736 342.517 507.712 342.533 507.691 342.554L489.087 361.119V329.546L499.458 318.614C499.494 318.571 499.512 318.516 499.509 318.46C499.506 318.404 499.481 318.351 499.44 318.312C499.4 318.273 499.346 318.252 499.289 318.251C499.233 318.251 499.179 318.272 499.137 318.31L489.084 328.902V300.489L496.618 292.857C496.641 292.837 496.659 292.813 496.672 292.785C496.685 292.758 496.692 292.728 496.693 292.697C496.694 292.667 496.689 292.637 496.677 292.609C496.666 292.581 496.649 292.555 496.627 292.534C496.606 292.512 496.58 292.496 496.552 292.485C496.523 292.474 496.493 292.469 496.462 292.47C496.432 292.471 496.402 292.479 496.375 292.492C496.348 292.505 496.323 292.524 496.303 292.547L489.084 299.855V275.423C489.084 275.365 489.06 275.309 489.019 275.268C488.978 275.227 488.922 275.204 488.864 275.204C488.806 275.204 488.75 275.227 488.709 275.268C488.667 275.309 488.644 275.365 488.644 275.423V309.493L482.905 304.619C482.883 304.6 482.857 304.586 482.829 304.577C482.802 304.568 482.773 304.565 482.744 304.567C482.715 304.57 482.687 304.578 482.661 304.591C482.636 304.604 482.613 304.622 482.594 304.644C482.575 304.666 482.561 304.692 482.552 304.719C482.543 304.747 482.54 304.776 482.542 304.805C482.545 304.834 482.553 304.862 482.566 304.887C482.579 304.913 482.598 304.936 482.62 304.954L488.638 310.072V342.165L477.282 330.832C477.262 330.809 477.238 330.79 477.21 330.777C477.183 330.764 477.153 330.757 477.122 330.756C477.092 330.755 477.062 330.76 477.033 330.771C477.005 330.782 476.979 330.799 476.958 330.82C476.936 330.842 476.919 330.868 476.908 330.896C476.897 330.924 476.892 330.954 476.893 330.985C476.894 331.015 476.901 331.045 476.915 331.072C476.928 331.1 476.946 331.124 476.969 331.144L488.646 342.787V361.643V391.227C488.646 391.285 488.669 391.341 488.71 391.382C488.752 391.423 488.808 391.447 488.866 391.447C488.924 391.447 488.98 391.423 489.021 391.382C489.062 391.341 489.085 391.285 489.085 391.227V361.742L508.008 342.858C508.028 342.838 508.044 342.814 508.054 342.788C508.065 342.761 508.07 342.733 508.07 342.705C508.069 342.677 508.063 342.649 508.052 342.623C508.041 342.597 508.024 342.573 508.004 342.554V342.554Z" fill="var(--fill-0, #B8DEBF)"/>
<path id="Vector_15" d="M453.98 383.995H451.518L451.908 400.542H453.98V383.995Z" fill="var(--fill-0, #5CA88D)"/>
<path id="Vector_16" d="M430.897 375.48C429.969 374.676 404.672 351.688 407.652 322.841C410.633 293.993 434.766 286.857 427.917 253.251C421.067 219.645 427.917 196.448 448.777 196.152C469.637 195.856 479.174 216.076 471.426 252.062C463.677 288.048 496.871 302.12 495.266 328.497C493.414 358.892 469.338 408.79 430.897 375.48Z" fill="var(--fill-0, #7AC094)"/>
<path id="Vector_17" opacity="0.2" d="M463.222 200.649C462.862 202.249 461.918 203.831 460.372 204.522C458.947 205.158 457.307 205.03 455.82 204.767C453.05 204.281 450.243 203.242 447.391 203.616C445.956 203.813 444.593 204.433 443.308 205.067C441.895 205.768 440.553 206.605 439.302 207.566C436.876 209.39 434.865 211.706 433.401 214.362C431.77 217.398 431.206 220.747 431.109 224.162C430.998 228.112 431.364 232.049 430.65 235.951C430.177 238.549 429.371 241.395 427.548 243.392C427.207 243.759 426.82 244.082 426.399 244.353C422.44 215.62 429.822 196.422 448.784 196.162C454.51 196.079 459.365 197.568 463.258 200.481C463.236 200.533 463.234 200.588 463.222 200.649Z" fill="var(--fill-0, #F2FAFF)"/>
<path id="Vector_18" opacity="0.15" d="M447.888 316.552C450.785 311.219 450.823 304.611 449.23 298.891C448.375 295.826 447.069 292.895 445.566 290.092C444.961 288.962 444.213 287.892 443.661 286.734C443.265 285.899 443.342 285.166 443.661 284.315C444.219 282.842 445.012 281.435 445.64 279.984C446.267 278.532 446.875 277.047 447.391 275.542C448.466 272.407 448.901 269.235 449.153 265.943C449.4 262.696 449.281 259.336 448.242 256.222C447.316 253.443 445.309 251.197 444.296 248.479C445.949 247.466 447.403 246.161 448.587 244.628C449.946 242.846 451.051 240.885 451.87 238.8C451.878 243.408 451.884 248.011 451.89 252.607C451.937 270.949 451.993 289.292 452.058 307.637C452.098 323.982 452.109 340.328 452.094 356.674C451.753 355.498 451.389 354.329 450.979 353.176C447.292 342.815 441.141 333.623 435.184 324.444C440.535 324.644 445.345 321.223 447.888 316.552Z" fill="var(--fill-0, #202234)"/>
<path id="Vector_19" opacity="0.15" d="M444.814 384.336C447.742 384.368 450.696 383.878 453.325 382.545C456.095 381.137 458.272 378.818 459.806 376.142C460.723 374.549 461.341 372.803 461.631 370.989C461.977 368.98 462.336 367.086 463.66 365.459C465.963 362.636 469.9 362.245 473.053 360.819C476.009 359.484 478.277 356.946 480.031 354.276C481.784 351.606 483.035 348.586 483.888 345.505C485.697 338.987 485.891 332.009 485.056 325.319C484.282 319.129 482.647 312.995 479.57 307.532C475.902 301.014 471.081 295.211 467.65 288.571C465.965 285.312 464.713 281.84 464.166 278.204C463.515 273.873 463.921 269.514 464.91 265.261C466.003 260.575 467.739 256.075 469.526 251.618C471.192 247.47 472.617 243.265 473.569 238.892C473.087 243.315 472.37 247.709 471.422 252.056C463.673 288.04 496.867 302.114 495.262 328.491C493.645 355.04 475.075 396.459 444.795 384.334C444.801 384.336 444.808 384.337 444.814 384.336V384.336Z" fill="var(--fill-0, #202234)"/>
<path id="Vector_20" d="M425.453 316.457C425.482 316.428 425.516 316.405 425.554 316.389C425.592 316.373 425.633 316.365 425.674 316.365C425.715 316.365 425.756 316.373 425.794 316.389C425.832 316.405 425.867 316.428 425.896 316.457L452.325 342.83V297.996L437.598 282.472C437.541 282.412 437.51 282.332 437.513 282.249C437.515 282.166 437.55 282.087 437.61 282.03C437.671 281.973 437.751 281.942 437.834 281.944C437.918 281.946 437.996 281.981 438.054 282.042L452.325 297.084V256.725L441.626 245.896C441.568 245.837 441.535 245.757 441.536 245.674C441.537 245.591 441.571 245.512 441.63 245.454C441.689 245.395 441.769 245.363 441.852 245.364C441.936 245.365 442.015 245.398 442.073 245.458L452.327 255.844V221.142C452.327 221.101 452.335 221.061 452.351 221.023C452.367 220.985 452.39 220.951 452.419 220.922C452.448 220.893 452.482 220.87 452.52 220.854C452.558 220.838 452.599 220.83 452.64 220.83C452.681 220.83 452.722 220.838 452.759 220.854C452.797 220.87 452.832 220.893 452.861 220.922C452.89 220.951 452.913 220.985 452.929 221.023C452.944 221.061 452.953 221.101 452.953 221.142V269.532L461.091 262.619C461.122 262.592 461.158 262.572 461.197 262.56C461.237 262.547 461.278 262.542 461.319 262.545C461.36 262.549 461.4 262.56 461.436 262.579C461.473 262.597 461.505 262.623 461.532 262.654C461.559 262.686 461.579 262.722 461.592 262.761C461.604 262.8 461.609 262.841 461.606 262.882C461.602 262.923 461.591 262.963 461.572 262.999C461.554 263.036 461.528 263.068 461.496 263.095L452.951 270.361V315.936L469.076 299.843C469.135 299.784 469.215 299.751 469.298 299.751C469.381 299.751 469.461 299.784 469.52 299.843C469.579 299.902 469.612 299.981 469.612 300.064C469.612 300.147 469.579 300.227 469.52 300.285L452.951 316.801V343.579V385.591C452.951 385.673 452.918 385.753 452.859 385.811C452.8 385.87 452.721 385.903 452.638 385.903C452.555 385.903 452.475 385.87 452.417 385.811C452.358 385.753 452.325 385.673 452.325 385.591V343.715L425.455 316.9C425.425 316.871 425.401 316.837 425.385 316.799C425.369 316.761 425.361 316.72 425.361 316.679C425.36 316.638 425.368 316.597 425.384 316.559C425.4 316.521 425.423 316.486 425.453 316.457V316.457Z" fill="var(--fill-0, #B8DEBF)"/>
<path id="Vector_21" d="M93.9486 372.514H96.5096L96.1058 389.728H93.9486V372.514Z" fill="var(--fill-0, #5CA88D)"/>
<path id="Vector_22" d="M117.965 363.657C118.931 362.82 145.248 338.906 142.142 308.901C139.037 278.895 113.934 271.459 121.065 236.497C128.195 201.534 121.065 177.403 99.3635 177.094C77.6623 176.786 67.741 197.833 75.8119 235.26C83.8827 272.688 49.3212 287.339 50.9995 314.774C52.9252 346.397 77.9711 398.308 117.965 363.657Z" fill="var(--fill-0, #7AC094)"/>
<path id="Vector_23" opacity="0.2" d="M84.334 181.771C84.71 183.436 85.6917 185.084 87.3027 185.801C88.785 186.462 90.4891 186.328 92.0526 186.055C94.9381 185.55 97.8554 184.475 100.822 184.858C102.314 185.056 103.733 185.708 105.071 186.369C106.542 187.098 107.937 187.969 109.237 188.971C111.729 190.882 113.888 193.268 115.373 196.041C117.069 199.201 117.657 202.683 117.748 206.235C117.864 210.333 117.482 214.439 118.225 218.5C118.717 221.202 119.555 224.162 121.451 226.24C121.804 226.621 122.203 226.957 122.638 227.241C126.759 197.349 119.076 177.377 99.3476 177.096C93.3924 177.012 88.3417 178.56 84.2904 181.59C84.3181 181.651 84.3201 181.706 84.334 181.771Z" fill="var(--fill-0, #F2FAFF)"/>
<path id="Vector_24" opacity="0.15" d="M100.286 302.349C97.2696 296.819 97.232 289.928 98.8885 283.981C99.7771 280.791 101.137 277.742 102.698 274.829C103.328 273.644 104.107 272.538 104.677 271.333C105.091 270.464 105.01 269.701 104.677 268.817C104.096 267.282 103.27 265.82 102.619 264.311C101.968 262.803 101.335 261.256 100.796 259.69C99.6782 256.429 99.2269 253.129 98.9657 249.704C98.7084 246.325 98.8311 242.829 99.9117 239.59C100.876 236.698 102.964 234.364 104.016 231.535C102.297 230.481 100.784 229.123 99.5535 227.528C98.1389 225.673 96.9887 223.632 96.1355 221.462C96.1276 226.25 96.1203 231.038 96.1137 235.827C96.0649 254.91 96.0069 273.993 95.9396 293.076C95.8974 310.082 95.8848 327.086 95.902 344.09C96.2562 342.868 96.6343 341.651 97.0618 340.452C100.899 329.672 107.296 320.109 113.489 310.564C107.935 310.769 102.93 307.21 100.286 302.349Z" fill="var(--fill-0, #202234)"/>
<path id="Vector_25" opacity="0.15" d="M103.482 372.869C100.438 372.903 97.3626 372.393 94.6314 371.005C91.7478 369.541 89.4856 367.126 87.8885 364.343C86.9361 362.685 86.2924 360.869 85.9885 358.982C85.6303 356.893 85.2543 354.924 83.8788 353.239C81.4821 350.302 77.3872 349.895 74.1078 348.412C71.0323 347.029 68.6731 344.383 66.8484 341.604C65.0236 338.825 63.7233 335.679 62.8347 332.479C60.9526 325.693 60.7507 318.44 61.6195 311.48C62.425 305.039 64.1251 298.66 67.3254 292.976C71.1391 286.203 76.1542 280.157 79.7266 273.245C81.4781 269.856 82.7823 266.241 83.3504 262.461C84.0292 257.956 83.6057 253.415 82.5765 248.997C81.4405 244.12 79.6336 239.439 77.7732 234.8C76.0414 230.477 74.5571 226.11 73.5675 221.567C74.0696 226.168 74.8155 230.74 75.802 235.262C83.8629 272.698 49.3291 287.341 50.9995 314.776C52.6818 342.396 72 385.484 103.51 372.871L103.482 372.869Z" fill="var(--fill-0, #202234)"/>
<path id="Vector_26" d="M123.628 302.251C123.597 302.22 123.561 302.196 123.522 302.18C123.482 302.163 123.44 302.155 123.397 302.155C123.354 302.155 123.312 302.163 123.272 302.18C123.233 302.196 123.197 302.22 123.166 302.251L95.6724 329.688V283.027L110.993 266.879C111.052 266.816 111.084 266.733 111.082 266.647C111.079 266.561 111.043 266.479 110.98 266.42C110.949 266.391 110.912 266.368 110.872 266.352C110.833 266.337 110.79 266.33 110.747 266.331C110.661 266.334 110.579 266.37 110.52 266.433L95.6764 282.081V240.111L106.807 228.835C106.862 228.773 106.891 228.691 106.888 228.608C106.886 228.525 106.851 228.446 106.791 228.387C106.731 228.329 106.652 228.295 106.568 228.294C106.485 228.292 106.404 228.323 106.342 228.379L95.6704 239.181V203.082C95.6704 202.996 95.636 202.913 95.5748 202.852C95.5135 202.791 95.4305 202.757 95.3439 202.757C95.2573 202.757 95.1742 202.791 95.113 202.852C95.0517 202.913 95.0173 202.996 95.0173 203.082V253.427L86.5506 246.228C86.5185 246.197 86.4804 246.172 86.4385 246.156C86.3966 246.14 86.3519 246.133 86.3072 246.135C86.2624 246.137 86.2186 246.149 86.1784 246.168C86.1382 246.188 86.1025 246.216 86.0735 246.25C86.0445 246.284 86.0228 246.324 86.0099 246.367C85.9969 246.409 85.9929 246.454 85.9981 246.499C86.0033 246.543 86.0176 246.586 86.0402 246.625C86.0627 246.663 86.093 246.697 86.1291 246.724L95.0193 254.284V301.686L78.2442 284.945C78.182 284.889 78.1008 284.86 78.0173 284.862C77.9338 284.864 77.8543 284.898 77.7953 284.957C77.7362 285.016 77.702 285.095 77.6998 285.179C77.6975 285.262 77.7273 285.343 77.7831 285.405L95.0213 302.606V330.455V374.161C95.0213 374.247 95.0557 374.33 95.1169 374.391C95.1782 374.452 95.2612 374.487 95.3478 374.487C95.4344 374.487 95.5175 374.452 95.5787 374.391C95.64 374.33 95.6744 374.247 95.6744 374.161V330.609L123.63 302.711C123.69 302.649 123.723 302.566 123.723 302.48C123.723 302.394 123.688 302.312 123.628 302.251V302.251Z" fill="var(--fill-0, #B8DEBF)"/>
<path id="Vector_27" d="M43.9776 399.106C43.9776 399.106 49.1827 361.437 38.8319 365.147C28.481 368.856 33.225 383.965 43.9776 399.106Z" fill="var(--fill-0, #394CA4)"/>
<path id="Vector_28" d="M44.6663 398.741C44.6663 398.741 23.4896 361.576 8.87972 374.354C-5.7302 387.133 44.6663 398.741 44.6663 398.741Z" fill="var(--fill-0, #100959)"/>
<path id="Vector_29" opacity="0.5" d="M9.69116 374.771C10.1147 375.932 10.8094 376.916 12.0661 377.22C13.6336 377.599 15.3416 377.139 16.917 377.05C18.6851 376.92 20.4571 377.246 22.0627 377.996C23.646 378.751 24.9839 379.892 26.3158 381.002C27.6478 382.112 29.0094 383.325 30.569 384.113C32.0494 384.86 33.8049 385.18 35.4317 385.432C28.1208 376.468 17.7818 367.38 9.42992 373.9C9.49849 374.196 9.58575 374.487 9.69116 374.771V374.771Z" fill="var(--fill-0, #F2FAFF)"/>
<path id="Vector_30" d="M14.8666 419.216H197.691L195.068 410.095L188.901 388.496C186.787 381.128 182.024 374.798 175.524 370.716C169.024 366.635 161.243 365.089 153.673 366.375L145.756 367.746C145.179 367.845 144.594 367.895 144.009 367.896C142.267 367.894 140.552 367.462 139.018 366.638C137.484 365.814 136.177 364.625 135.215 363.176C121.633 342.844 90.9225 345.36 80.8349 367.637L79.4871 370.627C78.345 373.161 76.2422 375.139 73.6404 376.127C71.0386 377.115 68.1503 377.032 65.6094 375.897L57.7167 372.371C55.5686 371.409 53.1592 371.192 50.8735 371.757C48.5878 372.322 46.5577 373.635 45.1077 375.486C44.0183 376.852 43.2962 378.473 43.0098 380.195L41.8362 387.022C41.565 388.626 40.924 390.145 39.9639 391.458C39.7897 391.684 39.6136 391.907 39.4394 392.106C37.8554 393.936 35.6894 395.168 33.3041 395.594C32.6875 395.715 32.0602 395.773 31.4319 395.768C29.3628 395.774 27.3391 395.163 25.6212 394.012C21.5105 391.275 16.0006 391.956 12.5055 395.444L7.19944 400.741C0.365513 407.555 5.20448 419.216 14.8666 419.216Z" fill="var(--fill-0, #4094F2)"/>
<path id="Vector_31" opacity="0.2" d="M7.71006 404.654C8.78077 403.074 9.42596 401.213 10.5778 399.679C12.9528 396.507 17.3167 395.869 21.0256 396.489C23.5193 396.908 25.8725 397.798 28.4394 397.569C30.4431 397.4 32.4291 397.065 34.3768 396.566C38.1966 395.563 42.0677 393.696 44.2111 390.234C46.3545 386.772 45.3273 382.231 47.8488 378.964C50.5602 375.451 55.2309 375.78 58.9932 377.155C61.103 377.925 62.9733 379.217 65.0889 379.942C67.5718 380.782 70.2407 380.912 72.7937 380.317C74.1149 380.01 75.3961 379.552 76.6114 378.95C77.3655 378.579 78.0522 378.178 78.5906 377.516C79.4653 376.428 79.7939 374.988 79.7424 373.616C79.7108 372.778 79.5298 371.953 79.208 371.178C77.9704 373.545 75.8745 375.351 73.3482 376.228C70.8218 377.104 68.0554 376.986 65.6134 375.897L57.7207 372.371C55.5726 371.409 53.1632 371.192 50.8775 371.757C48.5918 372.322 46.5617 373.635 45.1116 375.486C44.0223 376.852 43.3002 378.473 43.0137 380.195L41.8401 387.022C41.569 388.626 40.928 390.145 39.9679 391.458C39.7937 391.684 39.6176 391.907 39.4434 392.106C37.8589 393.936 35.6931 395.167 33.3081 395.594C32.6915 395.715 32.0642 395.773 31.4358 395.768C29.3668 395.774 27.3431 395.163 25.6251 394.012C21.5145 391.275 16.0046 391.956 12.5094 395.444L7.19746 400.741C5.40824 402.49 4.2934 404.811 4.04867 407.298C5.58249 406.959 6.80955 405.995 7.71006 404.654Z" fill="var(--fill-0, #F2FAFF)"/>
<path id="Vector_32" opacity="0.25" d="M31.0024 419.216H197.691L195.068 410.095C190.885 406.34 185.904 403.579 180.498 402.021C175.092 400.463 169.403 400.149 163.857 401.101L157.69 402.148L154.369 402.697C153.66 402.815 152.941 402.873 152.222 402.87C150.146 402.874 148.1 402.364 146.27 401.386C144.439 400.408 142.88 398.992 141.733 397.265C139.726 394.229 137.277 391.508 134.467 389.191C133.442 388.312 132.357 387.505 131.222 386.774C126.527 383.729 121.213 381.765 115.664 381.023C110.114 380.282 104.469 380.782 99.1379 382.488C89.6756 385.478 81.2861 392.28 76.6174 402.62L74.9945 406.159C73.6206 409.202 71.0926 411.577 67.9656 412.762C64.8386 413.947 61.3682 413.845 58.3164 412.479L53.5229 410.336L48.9036 408.268C47.1452 407.481 45.2296 407.105 43.3033 407.17C41.377 407.235 39.4912 407.738 37.7899 408.642C36.0887 409.547 34.6173 410.827 33.4882 412.386C32.3591 413.945 31.6022 415.74 31.2755 417.636L31.0024 419.216Z" fill="var(--fill-0, #F2FAFF)"/>
<path id="Vector_33" d="M53.606 385.587C53.606 386.228 53.7966 386.855 54.1537 387.388C54.5108 387.922 55.0183 388.337 55.6122 388.583C56.206 388.828 56.8594 388.892 57.4898 388.767C58.1201 388.642 58.6992 388.333 59.1537 387.88C59.6082 387.426 59.9177 386.848 60.0431 386.219C60.1684 385.59 60.1041 384.938 59.8581 384.346C59.6122 383.753 59.1956 383.246 58.6612 382.89C58.1268 382.534 57.4985 382.344 56.8558 382.344C55.9939 382.344 55.1673 382.685 54.5579 383.293C53.9484 383.902 53.606 384.726 53.606 385.587V385.587Z" fill="var(--fill-0, #100959)"/>
<path id="Vector_34" opacity="0.15" d="M54.3581 386.355C54.3581 386.996 54.5487 387.623 54.9058 388.157C55.2629 388.69 55.7704 389.106 56.3642 389.351C56.958 389.597 57.6114 389.661 58.2418 389.536C58.8722 389.411 59.4513 389.102 59.9057 388.648C60.3602 388.195 60.6697 387.617 60.7951 386.988C60.9205 386.359 60.8562 385.706 60.6102 385.114C60.3642 384.521 59.9477 384.015 59.4133 383.658C58.8789 383.302 58.2506 383.112 57.6078 383.112C56.746 383.112 55.9194 383.454 55.3099 384.062C54.7005 384.67 54.3581 385.495 54.3581 386.355Z" fill="var(--fill-0, #202234)"/>
<path id="Vector_35" d="M100.733 410.358C100.733 410.999 100.924 411.626 101.281 412.16C101.638 412.693 102.145 413.109 102.739 413.354C103.333 413.6 103.986 413.664 104.617 413.539C105.247 413.413 105.826 413.105 106.281 412.651C106.735 412.198 107.045 411.62 107.17 410.991C107.295 410.361 107.231 409.709 106.985 409.117C106.739 408.524 106.323 408.018 105.788 407.661C105.254 407.305 104.626 407.115 103.983 407.115C103.121 407.115 102.294 407.457 101.685 408.065C101.075 408.673 100.733 409.498 100.733 410.358Z" fill="var(--fill-0, #394CA4)"/>
<path id="Vector_36" opacity="0.15" d="M88.2625 369.14C88.2625 370.377 88.63 371.585 89.3183 372.613C90.0067 373.641 90.9851 374.443 92.1298 374.916C93.2745 375.389 94.5341 375.512 95.7492 375.271C96.9644 375.03 98.0805 374.434 98.9565 373.56C99.8324 372.685 100.429 371.571 100.67 370.359C100.912 369.146 100.787 367.889 100.313 366.747C99.8386 365.604 99.0355 364.628 98.0051 363.942C96.9747 363.255 95.7635 362.889 94.5245 362.889C93.702 362.889 92.8876 363.051 92.1277 363.365C91.3678 363.679 90.6774 364.14 90.0959 364.72C89.5144 365.301 89.0532 365.99 88.7386 366.748C88.4241 367.507 88.2623 368.319 88.2625 369.14V369.14Z" fill="var(--fill-0, #202234)"/>
<path id="Vector_37" d="M89.0483 366.912C89.0483 368.149 89.4157 369.357 90.1041 370.385C90.7925 371.413 91.7709 372.215 92.9156 372.688C94.0603 373.161 95.3198 373.285 96.535 373.043C97.7501 372.802 98.8662 372.206 99.7422 371.332C100.618 370.457 101.215 369.343 101.456 368.131C101.698 366.918 101.573 365.661 101.099 364.519C100.624 363.377 99.8212 362.4 98.7908 361.714C97.7605 361.027 96.5492 360.661 95.3102 360.661C94.4877 360.661 93.6733 360.823 92.9134 361.137C92.1536 361.451 91.4632 361.912 90.8817 362.492C90.3002 363.073 89.8389 363.762 89.5244 364.52C89.2098 365.279 89.048 366.092 89.0483 366.912V366.912Z" fill="var(--fill-0, #394CA4)"/>
<path id="Vector_38" d="M53.7248 417.51C53.7248 417.51 68.3802 399.068 61.6908 397.796C55.0013 396.525 52.7689 406.062 53.7248 417.51Z" fill="var(--fill-0, #100959)"/>
<path id="Vector_39" opacity="0.5" d="M54.1958 406.173C54.8786 406.011 55.3061 405.535 55.599 404.919C56.1928 403.682 56.1453 402.232 56.8201 401.032C57.1636 400.433 57.688 399.959 58.3183 399.677C58.9378 399.392 59.6305 399.25 60.2203 398.901C60.8101 398.551 60.8952 398.154 60.4538 397.684C56.9527 397.731 54.8865 401.128 54.0118 406.204C54.0711 406.192 54.1345 406.187 54.1958 406.173Z" fill="var(--fill-0, #F2FAFF)"/>
<path id="Vector_40" d="M53.7248 417.51C53.7248 417.51 44.4862 392.711 34.2897 399.068C24.0933 405.426 53.7248 417.51 53.7248 417.51Z" fill="var(--fill-0, #394CA4)"/>
<path id="Vector_41" opacity="0.2" d="M34.7054 398.847C34.8157 399.079 35.0022 399.265 35.2338 399.376C35.6415 399.542 36.166 399.477 36.5954 399.469C37.5415 399.452 38.5172 399.384 39.4513 399.572C40.4567 399.77 41.4186 400.362 42.2458 400.939C43.7678 402.011 44.7494 403.682 46.313 404.682C46.635 404.879 46.9757 405.044 47.3302 405.175C43.9024 400.244 39.4256 396.288 34.7054 398.847Z" fill="var(--fill-0, #F2FAFF)"/>
<path id="Vector_42" d="M53.7248 417.51C53.7248 417.51 87.8153 413.382 79.2061 407.972C70.5969 402.562 53.7248 417.51 53.7248 417.51Z" fill="var(--fill-0, #394CA4)"/>
<path id="Vector_43" opacity="0.2" d="M65.1087 409.959C66.1121 409.775 66.8504 409.185 67.7054 408.677C68.5104 408.182 69.3917 407.823 70.3138 407.615C71.622 407.34 72.9362 407.674 74.2503 407.494C74.7095 407.431 75.2399 407.275 75.42 406.821C72.0139 406.611 68.0774 408.091 64.4972 410.016C64.7021 410.012 64.9065 409.993 65.1087 409.959V409.959Z" fill="var(--fill-0, #F2FAFF)"/>
<path id="Vector_44" d="M341.057 399.106C341.057 399.106 346.258 361.428 335.911 365.147C325.564 368.866 330.3 383.965 341.057 399.106Z" fill="var(--fill-0, #394CA4)"/>
<path id="Vector_45" d="M341.741 398.741C341.741 398.741 320.565 361.576 305.955 374.354C291.345 387.133 341.741 398.741 341.741 398.741Z" fill="var(--fill-0, #100959)"/>
<path id="Vector_46" opacity="0.5" d="M306.766 374.771C307.19 375.932 307.884 376.916 309.141 377.22C310.709 377.599 312.417 377.139 313.992 377.05C315.76 376.92 317.532 377.246 319.138 377.996C320.721 378.751 322.059 379.892 323.389 381.002C324.719 382.112 326.083 383.325 327.642 384.113C329.122 384.86 330.878 385.18 332.505 385.432C325.182 376.468 314.855 367.38 306.503 373.9C306.574 374.195 306.662 374.486 306.766 374.771V374.771Z" fill="var(--fill-0, #F2FAFF)"/>
<path id="Vector_47" d="M311.952 419.216H494.775L492.153 410.095L485.976 388.496C483.862 381.128 479.099 374.798 472.599 370.716C466.099 366.635 458.319 365.089 450.748 366.375L442.831 367.746C442.254 367.845 441.669 367.895 441.084 367.896C439.343 367.894 437.63 367.463 436.097 366.641C434.563 365.82 433.257 364.632 432.294 363.185C418.712 342.854 388.002 345.37 377.914 367.647L376.566 370.637C375.424 373.171 373.32 375.149 370.718 376.137C368.116 377.125 365.228 377.042 362.686 375.907L354.794 372.381C352.646 371.419 350.236 371.202 347.951 371.767C345.665 372.332 343.635 373.645 342.185 375.496C341.095 376.862 340.373 378.482 340.087 380.205L338.913 387.032C338.643 388.636 338.002 390.155 337.041 391.468C336.867 391.693 336.691 391.917 336.516 392.116C334.933 393.946 332.767 395.178 330.381 395.604C329.765 395.725 329.137 395.783 328.509 395.778C326.44 395.784 324.416 395.173 322.698 394.022C318.588 391.285 313.078 391.966 309.583 395.454L304.278 400.747C297.441 407.555 302.28 419.216 311.952 419.216Z" fill="var(--fill-0, #4094F2)"/>
<path id="Vector_48" opacity="0.2" d="M304.787 404.654C305.858 403.074 306.503 401.213 307.655 399.679C310.03 396.507 314.384 395.869 318.101 396.489C320.594 396.908 322.948 397.798 325.514 397.569C327.518 397.4 329.504 397.065 331.452 396.566C335.272 395.563 339.143 393.696 341.286 390.234C343.43 386.772 342.402 382.231 344.924 378.964C347.635 375.451 352.306 375.78 356.068 377.155C358.178 377.925 360.048 379.217 362.164 379.942C364.647 380.782 367.316 380.912 369.869 380.317C371.19 380.01 372.471 379.552 373.686 378.95C374.441 378.579 375.127 378.178 375.666 377.516C376.54 376.428 376.869 374.988 376.817 373.616C376.786 372.778 376.605 371.953 376.283 371.178C375.045 373.545 372.95 375.351 370.423 376.228C367.897 377.104 365.13 376.986 362.688 375.897L354.796 372.371C352.648 371.409 350.238 371.192 347.953 371.757C345.667 372.322 343.637 373.635 342.187 375.486C341.097 376.852 340.375 378.473 340.089 380.195L338.915 387.022C338.645 388.626 338.004 390.145 337.043 391.458C336.869 391.684 336.693 391.907 336.518 392.106C334.934 393.936 332.768 395.167 330.383 395.594C329.766 395.715 329.139 395.773 328.511 395.768C326.442 395.774 324.418 395.163 322.7 394.012C318.59 391.275 313.08 391.956 309.584 395.444L304.28 400.737C302.491 402.486 301.376 404.807 301.132 407.295C302.65 406.959 303.885 405.995 304.787 404.654Z" fill="var(--fill-0, #F2FAFF)"/>
<path id="Vector_49" opacity="0.25" d="M328.077 419.216H494.766L492.143 410.095C487.96 406.34 482.979 403.579 477.573 402.021C472.167 400.463 466.478 400.149 460.932 401.101L454.765 402.148L451.444 402.697C450.735 402.815 450.017 402.873 449.297 402.87C447.221 402.874 445.175 402.364 443.345 401.386C441.514 400.408 439.955 398.992 438.808 397.265C436.801 394.229 434.352 391.508 431.542 389.191C430.517 388.312 429.432 387.505 428.297 386.774C423.602 383.729 418.288 381.765 412.739 381.023C407.189 380.282 401.544 380.782 396.213 382.488C386.751 385.478 378.361 392.28 373.692 402.62L372.07 406.159C370.696 409.202 368.168 411.577 365.041 412.762C361.914 413.947 358.443 413.845 355.391 412.479L350.598 410.336L345.979 408.268C344.22 407.481 342.305 407.105 340.378 407.17C338.452 407.235 336.566 407.738 334.865 408.642C333.164 409.547 331.692 410.827 330.563 412.386C329.434 413.945 328.677 415.74 328.351 417.636L328.077 419.216Z" fill="var(--fill-0, #F2FAFF)"/>
<path id="Vector_50" d="M350.681 385.587C350.681 386.228 350.872 386.855 351.229 387.388C351.586 387.922 352.093 388.337 352.687 388.583C353.281 388.828 353.934 388.892 354.565 388.767C355.195 388.642 355.774 388.333 356.229 387.88C356.683 387.426 356.993 386.848 357.118 386.219C357.243 385.59 357.179 384.938 356.933 384.346C356.687 383.753 356.271 383.246 355.736 382.89C355.202 382.534 354.574 382.344 353.931 382.344C353.504 382.344 353.081 382.427 352.687 382.59C352.293 382.753 351.935 382.992 351.633 383.293C351.331 383.595 351.092 383.952 350.928 384.346C350.765 384.739 350.681 385.161 350.681 385.587Z" fill="var(--fill-0, #100959)"/>
<path id="Vector_51" opacity="0.15" d="M351.435 386.355C351.435 386.996 351.626 387.623 351.983 388.157C352.34 388.69 352.847 389.106 353.441 389.351C354.035 389.597 354.688 389.661 355.319 389.536C355.949 389.411 356.528 389.102 356.983 388.648C357.437 388.195 357.747 387.617 357.872 386.988C357.998 386.359 357.933 385.706 357.687 385.114C357.441 384.521 357.025 384.015 356.49 383.658C355.956 383.302 355.328 383.112 354.685 383.112C353.823 383.112 352.996 383.454 352.387 384.062C351.778 384.67 351.435 385.495 351.435 386.355V386.355Z" fill="var(--fill-0, #202234)"/>
<path id="Vector_52" d="M397.808 410.358C397.808 410.999 397.999 411.626 398.356 412.16C398.713 412.693 399.22 413.109 399.814 413.354C400.408 413.6 401.061 413.664 401.692 413.539C402.322 413.413 402.901 413.105 403.356 412.651C403.81 412.198 404.12 411.62 404.245 410.991C404.37 410.361 404.306 409.709 404.06 409.117C403.814 408.524 403.398 408.018 402.863 407.661C402.329 407.305 401.701 407.115 401.058 407.115C400.196 407.115 399.369 407.457 398.76 408.065C398.15 408.673 397.808 409.498 397.808 410.358V410.358Z" fill="var(--fill-0, #394CA4)"/>
<path id="Vector_53" opacity="0.15" d="M385.338 369.14C385.338 370.377 385.705 371.585 386.393 372.613C387.082 373.641 388.06 374.443 389.205 374.916C390.35 375.389 391.609 375.512 392.824 375.271C394.039 375.03 395.156 374.434 396.032 373.56C396.907 372.685 397.504 371.571 397.745 370.359C397.987 369.146 397.862 367.889 397.388 366.747C396.914 365.604 396.111 364.628 395.08 363.942C394.05 363.255 392.839 362.889 391.6 362.889C390.777 362.889 389.963 363.051 389.203 363.365C388.443 363.679 387.752 364.14 387.171 364.72C386.589 365.301 386.128 365.99 385.814 366.748C385.499 367.507 385.337 368.319 385.338 369.14V369.14Z" fill="var(--fill-0, #202234)"/>
<path id="Vector_54" d="M386.123 366.912C386.123 368.149 386.491 369.357 387.179 370.385C387.867 371.413 388.846 372.214 389.99 372.688C391.135 373.161 392.394 373.284 393.609 373.043C394.824 372.802 395.941 372.207 396.817 371.333C397.693 370.458 398.289 369.344 398.531 368.132C398.773 366.919 398.649 365.662 398.174 364.52C397.7 363.378 396.897 362.402 395.867 361.715C394.837 361.028 393.626 360.661 392.387 360.661C391.565 360.661 390.75 360.822 389.99 361.137C389.23 361.451 388.539 361.911 387.957 362.492C387.376 363.072 386.914 363.761 386.6 364.52C386.285 365.278 386.123 366.091 386.123 366.912V366.912Z" fill="var(--fill-0, #394CA4)"/>
<path id="Vector_55" d="M350.8 417.51C350.8 417.51 365.445 399.068 358.766 397.796C352.086 396.525 349.844 406.062 350.8 417.51Z" fill="var(--fill-0, #100959)"/>
<path id="Vector_56" opacity="0.5" d="M351.271 406.173C351.954 406.011 352.381 405.535 352.674 404.919C353.268 403.682 353.218 402.232 353.895 401.032C354.239 400.433 354.763 399.959 355.393 399.677C356.013 399.392 356.706 399.25 357.295 398.901C357.885 398.551 357.97 398.154 357.529 397.684C354.028 397.731 351.962 401.128 351.087 406.204C351.148 406.192 351.212 406.187 351.271 406.173Z" fill="var(--fill-0, #F2FAFF)"/>
<path id="Vector_57" d="M350.8 417.51C350.8 417.51 341.561 392.711 331.365 399.068C321.168 405.426 350.8 417.51 350.8 417.51Z" fill="var(--fill-0, #394CA4)"/>
<path id="Vector_58" opacity="0.2" d="M331.782 398.847C331.893 399.079 332.079 399.265 332.311 399.376C332.719 399.542 333.243 399.477 333.672 399.469C334.62 399.452 335.594 399.384 336.528 399.572C337.534 399.77 338.496 400.362 339.323 400.939C340.845 402.011 341.826 403.682 343.388 404.682C343.71 404.879 344.051 405.044 344.405 405.175C340.979 400.244 336.493 396.288 331.782 398.847Z" fill="var(--fill-0, #F2FAFF)"/>
<path id="Vector_59" d="M350.8 417.51C350.8 417.51 384.89 413.376 376.287 407.972C367.684 402.568 350.8 417.51 350.8 417.51Z" fill="var(--fill-0, #394CA4)"/>
<path id="Vector_60" opacity="0.2" d="M362.184 409.959C363.187 409.775 363.925 409.185 364.78 408.677C365.585 408.182 366.467 407.823 367.389 407.615C368.697 407.34 370.011 407.674 371.325 407.494C371.785 407.431 372.315 407.275 372.495 406.821C369.091 406.611 365.152 408.091 361.572 410.016C361.777 410.012 361.982 409.993 362.184 409.959V409.959Z" fill="var(--fill-0, #F2FAFF)"/>
<path id="Vector_61" d="M649.943 388.506C649.943 388.506 642.001 330.97 657.814 336.648C673.627 342.327 666.37 365.388 649.943 388.506Z" fill="var(--fill-0, #394CA4)"/>
<path id="Vector_62" d="M648.898 387.951C648.898 387.951 681.237 331.197 703.548 350.711C725.858 370.225 648.898 387.951 648.898 387.951Z" fill="var(--fill-0, #100959)"/>
<path id="Vector_63" opacity="0.5" d="M702.307 351.347C701.66 353.124 700.601 354.621 698.685 355.086C696.29 355.664 693.684 354.961 691.277 354.827C688.532 354.673 685.902 355.08 683.412 356.273C681.007 357.426 678.951 359.168 676.919 360.863C674.886 362.557 672.806 364.418 670.423 365.613C668.163 366.752 665.475 367.24 662.997 367.629C674.164 353.94 689.951 340.061 702.705 350.02C702.599 350.469 702.466 350.913 702.307 351.347Z" fill="var(--fill-0, #F2FAFF)"/>
<path id="Vector_64" d="M694.404 419.216H415.218L419.22 405.284L428.639 372.3C431.867 361.047 439.14 351.378 449.066 345.143C458.993 338.909 470.875 336.547 482.438 338.511L494.524 340.602C497.594 341.127 500.751 340.748 503.609 339.512C506.467 338.275 508.902 336.234 510.616 333.638C531.358 302.59 578.255 306.434 593.659 340.45L595.719 345.017C597.463 348.886 600.675 351.906 604.648 353.415C608.622 354.924 613.033 354.798 616.913 353.065L628.966 347.681C632.247 346.211 635.926 345.881 639.416 346.743C642.907 347.605 646.007 349.61 648.221 352.437C649.884 354.523 650.987 356.998 651.423 359.628L653.215 370.055C653.627 372.503 654.607 374.822 656.074 376.827C656.342 377.171 656.609 377.512 656.876 377.815C659.297 380.613 662.608 382.496 666.255 383.147C667.197 383.332 668.155 383.421 669.115 383.414C672.274 383.423 675.364 382.489 677.987 380.732C684.265 376.551 692.68 377.593 698.016 382.918L706.115 391C716.549 401.411 709.162 419.216 694.404 419.216Z" fill="var(--fill-0, #4094F2)"/>
<path id="Vector_65" opacity="0.2" d="M705.331 396.989C703.696 394.561 702.711 391.735 700.953 389.393C697.319 384.55 690.662 383.574 685.001 384.522C681.192 385.16 677.599 386.523 673.679 386.171C670.617 385.914 667.582 385.401 664.606 384.639C658.772 383.108 652.862 380.256 649.589 374.961C646.315 369.666 647.883 362.741 644.033 357.752C639.893 352.386 632.752 352.891 627.013 354.987C623.793 356.172 620.935 358.135 617.711 359.243C613.919 360.526 609.844 360.724 605.945 359.816C603.927 359.348 601.97 358.648 600.115 357.728C598.965 357.163 597.914 356.543 597.1 355.538C595.764 353.875 595.264 351.677 595.341 349.581C595.391 348.302 595.667 347.042 596.158 345.86C598.047 349.475 601.248 352.233 605.107 353.573C608.965 354.912 613.19 354.73 616.919 353.065L628.972 347.681C632.253 346.211 635.932 345.881 639.422 346.743C642.912 347.605 646.013 349.61 648.227 352.437C649.89 354.523 650.992 356.998 651.429 359.628L653.211 370.055C653.624 372.503 654.603 374.822 656.07 376.827C656.338 377.171 656.605 377.513 656.862 377.815C659.283 380.613 662.594 382.496 666.241 383.147C667.183 383.332 668.141 383.421 669.101 383.414C672.26 383.423 675.35 382.489 677.973 380.732C684.251 376.551 692.667 377.593 698.002 382.918L706.101 391C709.044 393.939 710.568 397.465 710.908 401.014C708.597 400.498 706.708 399.027 705.331 396.989Z" fill="var(--fill-0, #F2FAFF)"/>
<path id="Vector_66" opacity="0.25" d="M669.764 419.216H415.218L419.22 405.284C425.607 399.548 433.214 395.332 441.469 392.953C449.724 390.574 458.412 390.094 466.88 391.549L476.298 393.147L481.369 393.985C482.452 394.166 483.55 394.255 484.648 394.251C486.994 394.258 489.321 393.832 491.512 392.995C495.249 391.568 498.447 389.013 500.661 385.687C503.726 381.051 507.466 376.896 511.756 373.359C513.32 372.018 514.973 370.784 516.704 369.668C523.873 365.018 531.989 362.019 540.463 360.887C548.937 359.755 557.558 360.519 565.7 363.124C580.147 367.69 592.96 378.077 600.091 393.868L602.571 399.272C604.666 403.922 608.526 407.551 613.301 409.364C618.077 411.176 623.378 411.022 628.04 408.936L635.363 405.663L642.416 402.503C645.102 401.302 648.026 400.729 650.967 400.829C653.908 400.928 656.788 401.698 659.385 403.078C661.982 404.458 664.229 406.413 665.953 408.793C667.677 411.173 668.833 413.914 669.333 416.808L669.764 419.216Z" fill="var(--fill-0, #F2FAFF)"/>
<path id="Vector_67" d="M635.246 367.862C635.246 368.842 634.954 369.799 634.409 370.613C633.864 371.427 633.088 372.061 632.182 372.436C631.275 372.81 630.278 372.908 629.315 372.716C628.353 372.525 627.469 372.053 626.775 371.361C626.082 370.668 625.609 369.786 625.418 368.826C625.227 367.865 625.325 366.87 625.701 365.965C626.076 365.06 626.712 364.287 627.528 363.743C628.344 363.199 629.303 362.909 630.284 362.909C630.936 362.909 631.582 363.037 632.184 363.285C632.786 363.534 633.333 363.899 633.794 364.359C634.255 364.819 634.62 365.365 634.87 365.967C635.119 366.568 635.247 367.212 635.246 367.862V367.862Z" fill="var(--fill-0, #100959)"/>
<path id="Vector_68" opacity="0.15" d="M634.096 369.036C634.096 370.015 633.804 370.972 633.259 371.786C632.714 372.6 631.939 373.234 631.032 373.609C630.125 373.983 629.128 374.081 628.165 373.89C627.203 373.698 626.319 373.227 625.625 372.534C624.932 371.842 624.459 370.959 624.268 369.999C624.077 369.038 624.175 368.043 624.551 367.138C624.926 366.234 625.562 365.46 626.378 364.916C627.194 364.372 628.153 364.082 629.134 364.082C629.786 364.082 630.432 364.21 631.034 364.459C631.636 364.708 632.183 365.073 632.644 365.533C633.104 365.993 633.47 366.539 633.719 367.14C633.968 367.741 634.096 368.385 634.096 369.036V369.036Z" fill="var(--fill-0, #202234)"/>
<path id="Vector_69" d="M563.279 405.691C563.279 406.671 562.988 407.628 562.442 408.443C561.897 409.258 561.122 409.893 560.214 410.267C559.307 410.642 558.309 410.74 557.346 410.549C556.383 410.358 555.499 409.886 554.805 409.193C554.111 408.5 553.638 407.617 553.447 406.656C553.256 405.695 553.354 404.699 553.73 403.794C554.106 402.889 554.743 402.115 555.559 401.571C556.376 401.027 557.336 400.737 558.317 400.737C558.969 400.737 559.615 400.865 560.217 401.114C560.819 401.363 561.366 401.728 561.827 402.188C562.288 402.648 562.653 403.194 562.902 403.795C563.152 404.396 563.28 405.04 563.279 405.691V405.691Z" fill="var(--fill-0, #394CA4)"/>
<path id="Vector_70" opacity="0.15" d="M582.322 342.738C582.322 344.626 581.761 346.471 580.71 348.041C579.659 349.611 578.165 350.834 576.417 351.557C574.669 352.279 572.746 352.468 570.89 352.099C569.035 351.731 567.33 350.822 565.993 349.487C564.655 348.151 563.744 346.45 563.375 344.599C563.007 342.747 563.196 340.827 563.921 339.083C564.645 337.339 565.871 335.848 567.444 334.8C569.018 333.751 570.867 333.192 572.759 333.192C574.015 333.192 575.259 333.439 576.419 333.919C577.58 334.398 578.634 335.102 579.522 335.988C580.41 336.874 581.114 337.927 581.595 339.085C582.075 340.243 582.322 341.484 582.322 342.738V342.738Z" fill="var(--fill-0, #202234)"/>
<path id="Vector_71" d="M581.123 339.344C581.123 341.232 580.562 343.078 579.511 344.648C578.46 346.218 576.966 347.441 575.218 348.163C573.47 348.886 571.546 349.075 569.691 348.706C567.835 348.338 566.131 347.428 564.793 346.093C563.456 344.758 562.545 343.057 562.176 341.205C561.807 339.354 561.997 337.434 562.721 335.69C563.446 333.946 564.672 332.455 566.245 331.407C567.818 330.358 569.668 329.798 571.56 329.799C572.816 329.799 574.059 330.046 575.22 330.525C576.38 331.005 577.435 331.708 578.323 332.595C579.211 333.481 579.915 334.533 580.395 335.692C580.876 336.85 581.123 338.091 581.123 339.344V339.344Z" fill="var(--fill-0, #394CA4)"/>
<path id="Vector_72" d="M635.064 416.609C635.064 416.609 612.684 388.449 622.9 386.507C633.117 384.566 636.529 399.132 635.064 416.609Z" fill="var(--fill-0, #100959)"/>
<path id="Vector_73" opacity="0.5" d="M634.352 399.297C633.309 399.051 632.657 398.322 632.208 397.382C631.31 395.493 631.375 393.279 630.344 391.456C629.82 390.542 629.019 389.818 628.056 389.387C627.108 388.952 626.053 388.733 625.153 388.202C624.282 387.688 624.121 387.062 624.796 386.345C630.14 386.418 633.307 391.605 634.635 399.357C634.534 399.329 634.439 399.319 634.352 399.297Z" fill="var(--fill-0, #F2FAFF)"/>
<path id="Vector_74" d="M635.064 416.609C635.064 416.609 649.173 378.737 664.751 388.448C680.329 398.16 635.064 416.609 635.064 416.609Z" fill="var(--fill-0, #394CA4)"/>
<path id="Vector_75" opacity="0.2" d="M664.108 388.111C663.939 388.464 663.655 388.75 663.302 388.921C662.681 389.173 661.879 389.075 661.222 389.063C659.775 389.035 658.287 388.934 656.868 389.219C655.332 389.527 653.866 390.404 652.599 391.304C650.276 392.942 648.775 395.492 646.389 397.02C645.897 397.322 645.376 397.575 644.835 397.775C650.064 390.244 656.914 384.202 664.108 388.111Z" fill="var(--fill-0, #F2FAFF)"/>
<path id="Vector_76" d="M635.064 416.609C635.064 416.609 583.013 410.289 596.142 402.043C609.272 393.797 635.064 416.609 635.064 416.609Z" fill="var(--fill-0, #394CA4)"/>
<path id="Vector_77" opacity="0.2" d="M617.679 405.086C616.145 404.806 615.019 403.901 613.721 403.129C612.492 402.374 611.146 401.826 609.739 401.506C607.742 401.087 605.733 401.594 603.728 401.322C603.028 401.227 602.206 400.986 601.947 400.293C607.146 399.973 613.159 402.232 618.627 405.173C618.31 405.167 617.993 405.138 617.679 405.086V405.086Z" fill="var(--fill-0, #F2FAFF)"/>
<path id="Vector_78" d="M209.223 105.941C209.223 105.941 230.778 123.574 239.624 124.173C249.213 124.824 274.942 109.047 274.942 109.047L280.39 117.041C280.39 117.041 249.336 144.099 235.86 144.152C223.95 144.19 195.167 119.428 195.167 119.428L209.223 105.941Z" fill="var(--fill-0, #FB8A77)"/>
<path id="Vector_79" d="M274.942 109.049L278.9 105.781C278.9 105.781 279.084 89.915 281.275 91.9256C283.466 93.9362 284.709 96.8633 284.709 96.8633C284.709 96.8633 287.875 90.2705 290.993 92.3957C294.11 94.5208 300.726 102.376 297.504 104.866C294.282 107.357 294.676 111.99 290.08 111.333C286.468 110.813 280.382 117.037 280.382 117.037L274.942 109.049Z" fill="var(--fill-0, #FB8A77)"/>
<path id="Vector_80" d="M176.751 419.131C179.74 417.794 183.13 417.893 185.63 418.27C187.425 418.541 189.012 419.491 190.419 420.715C194.189 423.998 205.065 424.612 207.503 427.233C210.288 430.223 205.182 432.216 205.182 432.216H177.569C173.169 432.963 173.61 430.472 173.61 430.472C173.61 430.472 171.18 421.624 176.751 419.131Z" fill="var(--fill-0, #231F20)"/>
<path id="Vector_81" d="M187.142 405.651V422.834C187.142 422.834 181.867 426.713 176.593 422.834V405.651H187.142Z" fill="var(--fill-0, #FF8D7D)"/>
<path id="Vector_82" d="M159.01 182.352L167.895 303.38L175.233 418.025L188.616 416.054L201.209 295.691L187.142 182.352H159.01Z" fill="var(--fill-0, #202234)"/>
<path id="Vector_83" d="M123.38 420.079C126.547 419.289 129.911 419.901 132.356 420.632C134.107 421.158 135.556 422.277 136.785 423.628C140.078 427.247 150.837 429.471 152.899 432.267C155.252 435.463 149.877 436.533 149.877 436.533L122.351 432.342C117.858 432.366 118.654 430.124 118.654 430.124C118.654 430.124 117.471 421.541 123.38 420.079Z" fill="var(--fill-0, #231F20)"/>
<path id="Vector_84" d="M136.613 405.651L133.03 422.834C133.03 422.834 127.756 426.713 122.48 422.834L126.062 405.651H136.613Z" fill="var(--fill-0, #FF8D7D)"/>
<path id="Vector_85" d="M138.281 188.864C138.281 188.864 129.397 199.207 130.137 224.326C130.877 249.445 130.093 288.603 130.093 288.603L123.723 412.149C123.723 412.149 133.513 417.648 136.613 415.594C167.796 394.942 167.895 268.649 167.895 268.649C167.895 268.649 180.48 185.903 172.336 182.947C164.192 179.99 138.281 188.864 138.281 188.864Z" fill="var(--fill-0, #232B57)"/>
<path id="Vector_86" d="M192.689 130.599C192.689 130.599 207.137 134.933 209.631 132.991C212.124 131.05 220.771 111.566 218.238 109.812C215.705 108.058 189.788 92.1586 175.081 91.7478C175.079 91.7478 196.853 119.703 192.689 130.599Z" fill="var(--fill-0, #4094F2)"/>
<path id="Vector_87" opacity="0.25" d="M218.238 109.814C217.248 109.128 212.682 106.28 206.612 103.041C205.961 103.865 205.391 104.754 204.831 105.631C203.986 106.932 203.153 108.246 202.191 109.466C201.302 110.594 200.281 111.672 199.024 112.387C197.812 113.083 196.393 113.334 195.015 113.096C194.625 113.047 194.245 112.941 193.887 112.78C193.521 112.58 193.182 112.335 192.877 112.052C192.109 111.376 191.433 110.606 190.667 109.93C189.841 109.2 188.868 108.7 187.86 108.259C187.151 107.953 186.424 107.689 185.683 107.469C190.514 115.733 194.755 125.245 192.705 130.601C192.705 130.601 207.153 134.935 209.646 132.993C212.14 131.052 220.769 111.568 218.238 109.814Z" fill="var(--fill-0, #231F20)"/>
<path id="Vector_88" d="M162.711 88.3882C196.026 87.4896 196.026 131.247 196.026 131.247C196.026 131.247 202.838 183.332 190.473 193.308C179.605 202.075 143.462 204.072 134.578 193.308C125.163 181.904 134.578 134.204 134.578 134.204C134.578 134.204 123.746 89.437 162.711 88.3882Z" fill="var(--fill-0, #4094F2)"/>
<path id="Vector_89" opacity="0.25" d="M174.996 192.705C173.337 191.564 171.388 191.305 169.417 191.341C167.307 191.38 165.209 191.619 163.099 191.431C161.218 191.269 159.382 190.765 157.682 189.944C156.032 189.126 154.43 188.214 152.885 187.211C149.323 184.951 145.833 182.421 142.877 179.411C141.582 178.094 140.484 176.695 139.756 174.987C138.705 172.522 138.336 169.836 138.327 167.174C138.305 161.341 139.785 155.623 139.849 149.793C139.944 141.103 138.53 132.553 136.983 124.028C136.529 124.329 136.091 124.652 135.671 124.998C134.913 125.618 134.196 126.29 133.482 126.961C133.692 129.393 134.061 131.808 134.586 134.192C134.586 134.192 125.171 181.892 134.586 193.296C141.345 201.485 163.877 202.286 179.061 198.342C178.212 196.124 176.975 194.068 174.996 192.705Z" fill="var(--fill-0, #231F20)"/>
<path id="Vector_90" d="M133.197 131.145L118.294 162.268L140.874 193.298L135.75 201.044C135.75 201.044 100.953 176.119 97.9346 163.006C95.2687 151.421 116.968 120.479 116.968 120.479L133.197 131.145Z" fill="var(--fill-0, #FB8A77)"/>
<path id="Vector_91" d="M140.874 193.298L150.556 197.416C150.556 197.416 160.493 195.561 159.012 198.149C157.532 200.736 154.939 200.124 154.939 200.124C154.939 200.124 162.082 201.751 160.693 205.259C159.303 208.767 153.089 216.938 149.942 214.344C146.795 211.751 142.538 212.636 142.168 208.024C141.877 204.394 135.748 201.04 135.748 201.04L140.874 193.298Z" fill="var(--fill-0, #FB8A77)"/>
<path id="Vector_92" d="M134.58 134.194L127.916 140.842C127.916 140.842 106.633 131.33 106.633 127.175C106.633 123.019 126.812 96.0021 144.913 93.4898C153.225 92.3384 134.58 134.194 134.58 134.194Z" fill="var(--fill-0, #4094F2)"/>
<path id="Vector_93" d="M133.347 400.955L150.455 295.743V217.915C159.972 214.789 164.273 200.645 164.453 200.041L163.832 199.857C163.788 200.003 159.381 214.5 150.035 217.37L149.807 217.441V295.691L132.716 400.852L133.347 400.955Z" fill="var(--fill-0, #726658)"/>
<path id="Vector_94" opacity="0.5" d="M182.192 403.704C182.845 393.333 188.549 302.334 187.425 300.279C186.564 298.699 177.104 259.109 172.221 238.393L171.588 238.541C172.168 240.99 185.739 298.541 186.857 300.588C187.69 302.812 183.304 375.747 181.543 403.662L182.192 403.704Z" fill="var(--fill-0, #726658)"/>
<path id="Vector_95" d="M188.395 111.275C182.655 114.305 176.003 116.531 169.745 115.948C166.618 115.658 163.978 114.031 161.126 112.549C158.328 111.098 154.991 110.114 152.365 112.595C151.842 113.088 151.337 111.974 151.854 111.487C157.019 106.616 162.893 113.227 168.051 114.396C171.459 115.168 175.061 114.582 178.43 113.764C181.805 112.929 185.063 111.677 188.127 110.037C188.721 109.721 188.99 110.961 188.397 111.275H188.395ZM189.715 123.102L179.661 125.036C176.538 125.628 173.3 126.641 170.137 126.742C167.224 126.837 165.158 124.25 162.46 123.333C159.404 122.296 156.174 122.709 153.071 123.102C152.424 123.183 152.428 121.901 153.071 121.818C155.862 121.465 158.692 121.141 161.474 121.747C162.813 122.044 164.087 122.579 165.235 123.327C166.691 124.267 167.988 125.377 169.682 125.456C171.376 125.535 173.08 125.006 174.733 124.69L179.392 123.793L189.443 121.862C190.081 121.743 190.354 122.98 189.713 123.102H189.715ZM187.593 133.201C182.071 135.213 176.312 136.706 170.555 135.553C167.725 134.986 165.001 133.817 162.341 132.503C159.472 131.089 156.586 129.521 153.435 129.993C152.79 130.09 152.796 128.808 153.435 128.711C156.176 128.298 158.763 129.371 161.29 130.611C163.966 131.927 166.634 133.24 169.456 133.995C175.461 135.602 181.529 134.076 187.322 131.962C187.947 131.735 188.214 132.971 187.589 133.201H187.593Z" fill="var(--fill-0, white)"/>
<path id="Vector_96" d="M157.811 70.5771L156.164 90.2883C156.164 90.2883 162.452 99.2768 168.467 92.3917L168.071 79.1587L157.811 70.5771Z" fill="var(--fill-0, #FB8A77)"/>
<path id="Vector_97" opacity="0.15" d="M163.216 92.7354C164.495 90.4759 164.942 87.063 162.866 85.1076C162.025 84.3176 160.942 83.8318 160.131 83.0062C159.123 81.9791 158.917 80.4011 159.038 79.0264C159.236 76.7847 160.15 74.5865 159.954 72.3704L168.069 79.1647L168.465 92.3976C166.116 95.0857 163.727 95.3602 161.686 94.6768C162.292 94.1107 162.808 93.4561 163.216 92.7354V92.7354Z" fill="var(--fill-0, #33133F)"/>
<path id="Vector_98" d="M183.583 49.8961C183.583 49.8961 185.238 81.515 172.662 82.7237C160.087 83.9325 154.334 70.8022 154.334 70.8022C154.334 70.8022 152.038 72.2756 151.444 69.9707C150.85 67.6658 148.02 63.6347 150.754 62.0428C153.487 60.4509 154.415 62.9711 154.415 62.9711L152.745 55.8332C152.745 55.8332 183.073 39.5409 183.583 49.8961Z" fill="var(--fill-0, #FB8A77)"/>
<path id="Vector_99" opacity="0.05" d="M153.322 63.6367C153.322 63.6367 151.648 62.7716 151.009 64.0752C150.37 65.3787 151.913 70.2808 153.859 69.6527C153.1 69.2979 152.471 68.7155 152.06 67.9867C151.65 67.258 151.477 66.4194 151.567 65.5881C151.81 62.5701 152.907 64.6025 153.322 63.6367Z" fill="var(--fill-0, #33133F)"/>
<path id="Vector_100" d="M153.621 62.2522C154.528 63.5498 161.995 50.4018 167.277 53.1412C172.56 55.8806 178.913 54.8694 180.801 52.2267C182.689 49.5841 188.228 49.8961 183.698 42.1855C175.431 28.1269 134.944 35.4979 153.621 62.2522Z" fill="var(--fill-0, #202234)"/>
<path id="Vector_101" opacity="0.05" d="M161.223 68.049C161.075 68.9279 162.035 69.8266 163.365 70.0438C164.694 70.2611 165.894 69.7377 166.042 68.8588C166.191 67.9799 165.233 67.0812 163.901 66.8639C162.569 66.6467 161.372 67.1721 161.223 68.049ZM176.302 68.1319C176.154 69.0108 177.112 69.9095 178.443 70.1268C179.775 70.344 180.975 69.8206 181.123 68.9417C181.272 68.0628 180.312 67.1642 178.982 66.9469C177.652 66.7296 176.451 67.255 176.302 68.1398V68.1319Z" fill="var(--fill-0, #33133F)"/>
<path id="Vector_102" d="M175.665 59.8762C175.73 59.876 175.794 59.8588 175.851 59.8262C175.908 59.7937 175.955 59.7469 175.987 59.6905C176.047 59.5858 177.486 57.2138 181.016 58.7741C181.061 58.7938 181.109 58.8045 181.158 58.8057C181.207 58.8068 181.256 58.7983 181.301 58.7807C181.347 58.7631 181.388 58.7367 181.424 58.703C181.459 58.6694 181.487 58.6291 181.507 58.5845C181.527 58.5399 181.538 58.4918 181.539 58.443C181.54 58.3943 181.531 58.3458 181.514 58.3003C181.496 58.2548 181.47 58.2132 181.436 58.1779C181.402 58.1427 181.362 58.1144 181.317 58.0947C177.161 56.2539 175.358 59.2896 175.34 59.3192C175.292 59.405 175.28 59.5063 175.305 59.6013C175.331 59.6962 175.394 59.7772 175.479 59.8268C175.535 59.8601 175.599 59.8772 175.665 59.8762V59.8762ZM168.445 59.9413C168.492 59.9409 168.539 59.9316 168.583 59.9137C168.673 59.8753 168.743 59.8036 168.78 59.7139C168.817 59.6243 168.818 59.5237 168.781 59.4337C168.768 59.4002 167.416 56.1571 162.521 57.2059C162.425 57.2267 162.341 57.2847 162.287 57.3672C162.233 57.4497 162.214 57.55 162.234 57.6463C162.245 57.694 162.264 57.7392 162.292 57.7794C162.319 57.8195 162.355 57.8538 162.396 57.8802C162.437 57.9067 162.483 57.9247 162.531 57.9334C162.579 57.9421 162.628 57.9412 162.676 57.9307C166.931 57.0202 168.043 59.5977 168.089 59.7083C168.118 59.7785 168.167 59.8384 168.231 59.88C168.294 59.9216 168.369 59.943 168.445 59.9413V59.9413ZM172.684 69.3249C172.813 69.3248 172.941 69.3068 173.064 69.2716C173.856 69.0425 174.188 68.1556 174.202 68.1181C174.222 68.0636 174.229 68.0054 174.222 67.9479C174.215 67.8903 174.196 67.8351 174.165 67.7863C172.835 65.748 173.185 62.979 173.187 62.9513C173.194 62.8569 173.165 62.7634 173.105 62.6898C173.045 62.6163 172.959 62.5683 172.865 62.5557C172.771 62.5431 172.676 62.5668 172.599 62.622C172.522 62.6772 172.469 62.7597 172.451 62.8526C172.433 62.9731 172.075 65.7698 173.44 68.0154C173.323 68.2617 173.118 68.455 172.864 68.5566C172.611 68.6277 172.306 68.5289 171.956 68.2603C171.917 68.2308 171.872 68.2091 171.825 68.1967C171.778 68.1843 171.728 68.1813 171.68 68.1879C171.631 68.1945 171.585 68.2106 171.542 68.2352C171.5 68.2598 171.463 68.2925 171.433 68.3314C171.404 68.3703 171.382 68.4147 171.37 68.4619C171.357 68.5092 171.354 68.5584 171.361 68.6069C171.367 68.6553 171.384 68.7019 171.408 68.7441C171.433 68.7863 171.466 68.8233 171.505 68.8528C171.834 69.137 172.249 69.3031 172.684 69.3249V69.3249Z" fill="var(--fill-0, #202234)"/>
<path id="Vector_103" d="M153.819 54.6561C153.819 54.6561 153.404 67.3498 161.484 74.5707C161.484 74.5707 162.327 69.9431 171.673 71.2743C181.018 72.6055 179.611 75.4812 179.611 75.4812C179.611 75.4812 181.881 75.1158 183.203 62.1356C183.005 70.3262 182.681 72.6252 182.681 72.6252C182.681 72.6252 181.228 81.7224 173.5 83.334C165.771 84.9457 154.425 80.4959 154.413 70.5909C154.413 70.5909 154.957 64.0515 153.202 60.2653C151.446 56.479 150.593 54.9385 153.819 54.6561Z" fill="var(--fill-0, #202234)"/>
<path id="Vector_104" d="M175.077 73.0578C173.634 73.6143 172.093 73.8755 170.547 73.826C169.001 73.7764 167.48 73.4171 166.076 72.7694C164.997 74.7405 170.642 79.8737 175.077 73.0578Z" fill="var(--fill-0, #FCFAF7)"/>
<path id="Vector_105" d="M176.793 62.9553C176.793 64.1127 177.436 65.0508 178.23 65.0508C179.023 65.0508 179.665 64.1127 179.665 62.9553C179.665 61.7979 179.021 60.8617 178.23 60.8617C177.438 60.8617 176.793 61.7999 176.793 62.9553ZM163.867 62.9553C163.867 64.1127 164.51 65.0508 165.304 65.0508C166.098 65.0508 166.741 64.1127 166.741 62.9553C166.741 61.7979 166.098 60.8617 165.304 60.8617C164.51 60.8617 163.867 61.7999 163.867 62.9553Z" fill="var(--fill-0, #202234)"/>
<path id="Vector_106" d="M503.854 103.039H218.463C213.891 103.039 209.506 104.852 206.273 108.078C203.04 111.305 201.223 115.681 201.223 120.244V228.891C201.223 233.454 203.04 237.83 206.273 241.056C209.506 244.283 213.891 246.095 218.463 246.095H503.879C508.446 246.095 512.826 244.285 516.055 241.063C519.284 237.84 521.098 233.47 521.098 228.912V120.244C521.098 117.984 520.651 115.747 519.785 113.66C518.918 111.572 517.648 109.675 516.046 108.078C514.445 106.48 512.544 105.213 510.452 104.348C508.36 103.484 506.118 103.039 503.854 103.039V103.039Z" fill="var(--fill-0, #6EA4FE)"/>
<path id="Vector_107" d="M466.753 174.855C466.753 174.855 466.003 188.816 477.011 187.706C488.019 186.597 521.112 207.623 521.112 207.623V172.931L466.753 174.855Z" fill="var(--fill-0, #5994EA)"/>
<path id="Vector_108" d="M533.879 138.664L526.869 164.784L487.34 170.907L487.025 179.226C487.025 179.226 522.093 184.813 531.951 178.692C540.66 173.285 550.326 142.08 550.326 142.08L533.879 138.664Z" fill="var(--fill-0, #FB8A77)"/>
<path id="Vector_109" d="M566.778 419.157C564.403 418.292 561.749 418.485 559.806 418.849C558.41 419.109 557.201 419.858 556.142 420.8C553.304 423.322 544.818 424.158 542.999 426.149C540.921 428.422 544.978 429.688 544.978 429.688L566.57 428.7C570.036 429.086 569.606 427.29 569.606 427.29C569.606 427.29 571.217 420.768 566.778 419.157Z" fill="var(--fill-0, #231F20)"/>
<path id="Vector_110" d="M558.638 410.289L559.157 421.519C559.157 421.519 562.719 423.889 566.054 421.203L565.535 409.973L558.638 410.289Z" fill="var(--fill-0, #FB8A77)"/>
<path id="Vector_111" d="M593.292 212.353C593.292 212.353 607.085 224.678 602.11 246.945C597.134 269.212 573.535 322.57 573.535 322.57L568.587 415.106L556.722 415.27L544.087 311.606C544.087 311.606 556.176 202.5 563.948 201.259C571.72 200.019 593.292 212.353 593.292 212.353Z" fill="var(--fill-0, #202234)"/>
<path id="Vector_112" d="M684.477 394.931C682.041 395.458 679.941 397.004 678.516 398.326C677.494 399.274 676.879 400.528 676.493 401.867C675.46 405.452 668.842 410.589 668.379 413.196C667.846 416.174 671.888 415.102 671.888 415.102L689.324 402.973C692.409 401.48 691.105 400.208 691.105 400.208C691.105 400.208 689.017 393.947 684.477 394.931Z" fill="var(--fill-0, #231F20)"/>
<path id="Vector_113" d="M673.045 391.816L679.379 400.885C679.379 400.885 683.594 400.996 684.948 397.01L678.615 387.941L673.045 391.816Z" fill="var(--fill-0, #FB8A77)"/>
<path id="Vector_114" d="M610.414 202.984C610.414 202.984 612.955 200.718 622.776 221.32C628.317 232.949 628.687 258.254 628.687 258.254L642.05 301.455L683.289 392.841L676.149 397.885L612.14 312.167C612.14 312.167 557.262 209.918 563.425 205.04C569.588 200.161 610.414 202.984 610.414 202.984Z" fill="var(--fill-0, #232B57)"/>
<path id="Vector_115" d="M565.953 112.006C551.121 114.145 532.155 128.498 529.487 146.941L547.685 151.768C547.685 151.768 576.422 110.497 565.953 112.006Z" fill="var(--fill-0, #4094F2)"/>
<path id="Vector_116" opacity="0.25" d="M543.252 150.591L539.654 149.637L552.006 123.487C552.006 123.487 548.145 147.419 543.252 150.591Z" fill="var(--fill-0, #231F20)"/>
<path id="Vector_117" d="M558.141 214.03C558.141 214.03 563.356 176.085 557.217 169.33C551.078 162.576 539.167 161.284 544.05 147.921C548.895 134.557 556.293 117.837 564.949 112.152C567.983 110.195 579.078 109.19 579.078 109.19C579.078 109.19 605.969 101.289 608.187 111.147C609.112 115.208 609.149 129.16 609.519 145.179C609.777 156.548 610.147 168.987 611.035 179.692C611.997 190.766 613.476 199.92 615.983 204.09C622.352 214.658 558.141 214.03 558.141 214.03Z" fill="var(--fill-0, #4094F2)"/>
<path id="Vector_118" d="M614.924 143.538L634.747 166.735L621.321 212.162L628.088 212.687C628.088 212.687 653.088 172.147 651.218 160.711C649.565 150.609 624.418 129.703 624.418 129.703L614.924 143.538Z" fill="var(--fill-0, #FB8A77)"/>
<path id="Vector_119" d="M617.834 217.23C617.834 217.23 617.297 213.775 617.945 213.005C619.447 211.228 621.754 210.684 622.455 210.92C620.442 212.881 617.834 217.23 617.834 217.23Z" fill="var(--fill-0, #FB8A77)"/>
<path id="Vector_120" opacity="0.2" d="M619.423 212.679C618.966 212.733 618.513 212.865 618.051 212.877C619.554 211.188 621.768 210.68 622.455 210.902C621.863 211.5 621.314 212.138 620.81 212.812C620.361 212.677 619.89 212.632 619.423 212.679V212.679Z" fill="var(--fill-0, white)"/>
<path id="Vector_121" d="M628.093 216.886C627.837 217.523 627.536 218.142 627.193 218.737V218.737C627.193 218.737 627.106 218.922 626.995 219.148C626.91 219.327 626.797 219.543 626.67 219.77C626.67 219.77 625.414 222.418 624.531 222.377C623.648 222.335 623.492 221.688 623.492 221.688C623.492 221.688 622.875 222.28 622.12 221.913C621.366 221.545 621.398 220.925 621.398 220.925C621.207 221.093 620.969 221.198 620.715 221.225C620.462 221.251 620.207 221.198 619.985 221.073C619.737 220.955 619.525 220.774 619.367 220.55C619.209 220.325 619.112 220.064 619.085 219.791C619.085 219.791 618.194 220.582 617.462 219.308C616.729 218.034 617.998 216.284 618.041 216.203C618.22 215.857 618.41 215.529 618.606 215.215C618.651 215.127 618.706 215.044 618.768 214.966C623.716 209.851 626.965 198.524 628.214 198.321C628.214 198.321 633.954 199.506 633.934 200.945C633.443 202.2 628.08 212.675 628.08 212.675C628.08 212.675 629.087 214.457 628.093 216.886Z" fill="var(--fill-0, #FB8A77)"/>
<path id="Vector_122" opacity="0.2" d="M627.195 218.737C627.179 218.766 627.108 218.922 626.997 219.148C626.912 219.327 626.799 219.543 626.673 219.77C626.673 219.77 625.416 222.418 624.533 222.377C623.65 222.335 623.494 221.688 623.494 221.688C623.494 221.688 622.877 222.28 622.123 221.913C621.368 221.545 621.4 220.925 621.4 220.925C621.209 221.093 620.971 221.198 620.717 221.225C620.464 221.251 620.209 221.198 619.987 221.073C619.739 220.955 619.527 220.774 619.369 220.55C619.211 220.325 619.114 220.064 619.087 219.791C619.087 219.791 618.196 220.582 617.464 219.308C617.229 218.859 617.172 218.339 617.303 217.85C617.541 218.368 617.948 218.79 618.457 219.047C618.586 219.107 618.725 219.141 618.867 219.15C619.029 219.15 619.189 219.12 619.35 219.114C619.7 219.1 619.92 219.373 620.153 219.598C620.431 219.905 620.791 220.127 621.19 220.238C621.504 220.287 621.823 220.301 622.14 220.279C622.472 220.258 622.801 220.34 623.084 220.512C623.334 220.709 623.619 220.856 623.924 220.945C624.482 221.073 625.002 220.82 625.404 220.445C625.669 220.175 625.907 219.88 626.116 219.564C626.403 219.169 626.682 218.759 626.961 218.354C627.454 217.674 627.905 216.965 628.311 216.23C628.25 216.447 628.178 216.661 628.094 216.87C627.838 217.513 627.538 218.136 627.195 218.737V218.737Z" fill="var(--fill-0, white)"/>
<path id="Vector_123" opacity="0.25" d="M611.033 179.704C609.666 176.53 607.964 173.208 605.967 170.328C600.271 162.096 587.436 164.569 587.436 164.569C604.71 160.324 605.524 151.138 605.524 151.138C606.596 148.924 608.112 146.856 609.519 145.195C609.777 156.56 610.147 168.999 611.033 179.704Z" fill="var(--fill-0, #231F20)"/>
<path id="Vector_124" d="M603.952 107.049C603.952 107.049 625.069 117.532 633.12 134.986C633.12 134.986 623.633 145.367 616.432 147.8L607.966 141.583L603.952 107.049Z" fill="var(--fill-0, #4094F2)"/>
<path id="Vector_125" d="M584.853 107.777L587.359 107.055C587.359 107.055 592.633 119.182 578.475 120.845C564.316 122.508 561.539 117.935 561.539 117.935C561.539 117.935 560.615 114.123 564.205 112.385C567.795 110.647 584.853 107.777 584.853 107.777Z" fill="var(--fill-0, #F56F58)"/>
<path id="Vector_126" d="M572.682 59.252C569.955 59.9927 559.728 59.9907 555.772 65.8725C551.477 72.0505 556.673 82.9094 550.213 84.1162C543.209 84.2485 546.233 92.9546 552.154 96.7685C555.028 98.6783 561.654 99.9582 564.643 101.609C569.448 104.769 578.328 106.387 585.014 105.245C591.743 104.315 596.295 100.62 593.631 98.0285C588.145 91.6333 596.39 89.3205 590.906 82.5124C586.486 76.5043 588.634 74.7859 587.361 72.0129C583.421 62.8644 579.627 58.4778 572.682 59.252Z" fill="var(--fill-0, #231F20)"/>
<path id="Vector_127" d="M579.134 92.0836L581.036 110.9C581.036 110.9 575.174 119.59 569.312 113.114L569.47 100.464L579.134 92.0836Z" fill="var(--fill-0, #F18A66)"/>
<path id="Vector_128" opacity="0.15" d="M574.333 113.355C573.072 111.216 572.589 107.961 574.54 106.057C575.332 105.287 576.359 104.805 577.113 104.003C578.059 103.006 578.229 101.493 578.093 100.181C577.867 98.0404 576.957 95.9547 577.103 93.8335L569.458 100.462L569.3 113.112C571.589 115.644 573.877 115.856 575.817 115.18C575.234 114.649 574.734 114.034 574.333 113.355V113.355Z" fill="var(--fill-0, #33133F)"/>
<path id="Vector_129" d="M554.151 72.7398C554.151 72.7398 553.094 102.994 565.137 103.946C577.18 104.898 582.461 92.2357 582.461 92.2357C582.461 92.2357 584.679 93.6064 585.208 91.3923C585.736 89.1783 588.374 85.2795 585.736 83.8021C583.098 82.3248 582.251 84.7521 582.251 84.7521L583.729 77.9006C583.729 77.9006 554.468 62.8309 554.151 72.7398Z" fill="var(--fill-0, #F18A66)"/>
<path id="Vector_130" opacity="0.05" d="M583.417 85.1728C583.417 85.1728 585 84.3176 585.635 85.552C586.271 86.7865 584.875 91.5009 583.005 90.9302C583.724 90.5782 584.315 90.0112 584.696 89.308C585.076 88.6049 585.228 87.8007 585.129 87.0077C584.844 84.1379 583.83 86.0912 583.417 85.1728ZM576.116 92.4806C576.256 93.32 575.34 94.1732 574.067 94.3885C572.795 94.6038 571.647 94.0962 571.506 93.2568C571.366 92.4174 572.28 91.5622 573.555 91.3489C574.829 91.1356 575.967 91.6432 576.116 92.4727V92.4806ZM561.698 92.5596C561.84 93.399 560.924 94.2542 559.649 94.4675C558.375 94.6808 557.229 94.1752 557.088 93.3338C556.948 92.4924 557.862 91.6392 559.137 91.4259C560.411 91.2126 561.555 91.7123 561.698 92.5517V92.5596Z" fill="var(--fill-0, #33133F)"/>
<path id="Vector_131" d="M562.311 84.6573C562.249 84.6576 562.187 84.6413 562.133 84.61C562.079 84.5788 562.034 84.5338 562.003 84.4796C561.943 84.3789 560.568 82.1095 557.193 83.6046C557.15 83.6263 557.103 83.639 557.055 83.6419C557.007 83.6448 556.958 83.6379 556.913 83.6216C556.867 83.6053 556.826 83.5799 556.79 83.5471C556.755 83.5142 556.727 83.4745 556.707 83.4304C556.688 83.3863 556.677 83.3387 556.677 83.2905C556.677 83.2423 556.686 83.1945 556.704 83.15C556.723 83.1055 556.751 83.0653 556.785 83.0317C556.82 82.9982 556.861 82.972 556.906 82.9548C560.886 81.195 562.604 84.0964 562.622 84.126C562.669 84.2078 562.681 84.3046 562.656 84.3953C562.631 84.486 562.571 84.5632 562.489 84.6099C562.435 84.6414 562.374 84.6578 562.311 84.6573V84.6573ZM569.214 84.7205C569.156 84.7204 569.099 84.7061 569.048 84.679C568.997 84.6518 568.953 84.6126 568.921 84.5647C568.888 84.5168 568.868 84.4617 568.861 84.4042C568.855 84.3467 568.863 84.2885 568.884 84.2347C568.896 84.2031 570.19 81.1062 574.869 82.1036C574.961 82.1235 575.042 82.1792 575.093 82.2585C575.144 82.3377 575.162 82.434 575.142 82.5262C575.122 82.6184 575.066 82.6989 574.987 82.7501C574.907 82.8012 574.811 82.8187 574.718 82.7988C570.651 81.9278 569.587 84.3927 569.543 84.4993C569.518 84.5673 569.473 84.626 569.413 84.6674C569.354 84.7087 569.283 84.7307 569.211 84.7304L569.214 84.7205ZM565.161 93.6893C565.039 93.689 564.917 93.6717 564.799 93.638C564.045 93.4187 563.726 92.5714 563.713 92.5359C563.693 92.4841 563.686 92.4285 563.692 92.3736C563.699 92.3187 563.718 92.2661 563.748 92.2199C565.025 90.2646 564.686 87.6239 564.682 87.5982C564.676 87.5082 564.705 87.4192 564.762 87.3492C564.819 87.2793 564.9 87.2337 564.99 87.2216C565.08 87.2096 565.171 87.232 565.244 87.2843C565.318 87.3366 565.369 87.415 565.387 87.5034C565.403 87.6199 565.745 90.2922 564.449 92.4411C564.562 92.676 564.758 92.861 564.999 92.9605C565.238 93.0297 565.531 92.9348 565.868 92.6781C565.943 92.6269 566.035 92.6064 566.125 92.6207C566.215 92.6351 566.296 92.6832 566.351 92.7552C566.406 92.8272 566.432 92.9176 566.423 93.008C566.414 93.0983 566.37 93.1817 566.301 93.241C565.98 93.5126 565.578 93.6703 565.157 93.6893H565.161Z" fill="var(--fill-0, #231F20)"/>
<path id="Vector_132" d="M562.869 97.2602C564.249 97.7922 565.722 98.042 567.2 97.9948C568.678 97.9477 570.132 97.6045 571.475 96.9857C572.506 98.8699 567.119 103.778 562.869 97.2602Z" fill="var(--fill-0, #FCFAF7)"/>
<path id="Vector_133" d="M561.229 87.6022C561.229 88.7082 560.615 89.6049 559.855 89.6049C559.095 89.6049 558.482 88.7082 558.482 87.6022C558.482 86.4961 559.097 85.5994 559.855 85.5994C560.613 85.5994 561.229 86.4961 561.229 87.6022ZM573.586 87.6022C573.586 88.7082 572.971 89.6049 572.213 89.6049C571.455 89.6049 570.839 88.7082 570.839 87.6022C570.839 86.4961 571.455 85.5994 572.213 85.5994C572.971 85.5994 573.592 86.4961 573.592 87.6022H573.586Z" fill="var(--fill-0, #231F20)"/>
<path id="Vector_134" opacity="0.05" d="M568.134 102.289C567.917 102.292 567.701 102.271 567.489 102.228C567.465 102.223 567.442 102.214 567.422 102.201C567.402 102.188 567.384 102.17 567.371 102.15C567.358 102.13 567.349 102.107 567.344 102.084C567.34 102.06 567.341 102.036 567.346 102.012C567.352 101.988 567.362 101.966 567.377 101.947C567.391 101.927 567.409 101.911 567.43 101.899C567.451 101.887 567.474 101.879 567.498 101.876C567.522 101.873 567.547 101.875 567.57 101.882C568.102 101.967 568.647 101.932 569.165 101.781C569.682 101.629 570.16 101.365 570.562 101.007C570.598 100.976 570.644 100.961 570.692 100.964C570.739 100.967 570.783 100.989 570.814 101.025C570.845 101.06 570.86 101.107 570.857 101.154C570.853 101.201 570.831 101.245 570.796 101.276C570.061 101.925 569.115 102.285 568.134 102.289V102.289Z" fill="var(--fill-0, #33133F)"/>
<path id="Vector_135" d="M559.633 67.7745C559.679 67.0761 559.682 66.3757 559.643 65.6769C547.125 66.783 553.148 79.7493 553.148 79.7493C557.502 77.5767 558.967 72.9965 559.447 69.6468C562.812 74.2408 573.339 79.7414 585.107 79.9784L586.581 77.3772L559.633 67.7745Z" fill="var(--fill-0, #231F20)"/>
<path id="Vector_136" d="M558.466 67.5256C559.008 71.0254 561.522 74.0828 564.205 76.2515C567.747 79.1209 572.089 80.8301 576.64 81.1457C579.669 81.3247 582.703 80.901 585.566 79.8994C586.104 79.7157 585.873 78.8585 585.331 79.0442C580.634 80.646 575.591 80.7368 570.907 79.0442C567.188 77.6992 563.703 75.2698 561.407 72.0307C560.397 70.6126 559.606 69.0247 559.337 67.2906C559.25 66.7296 558.393 66.9686 558.478 67.5276L558.466 67.5256Z" fill="var(--fill-0, #33133F)"/>
<path id="Vector_137" d="M296.938 153.538V191.609H294.157V173.5H268.652V191.609H265.881V153.538H268.652V171.041H294.157V153.538H296.938ZM337.922 189.107V191.609H311.599V153.538H337.104V156.04H314.378V171.051H334.711V173.5H314.378V189.103H337.93L337.922 189.107ZM349.418 153.538H352.189V189.107H374.158V191.609H349.418V153.538ZM382.668 153.538H385.439V189.107H407.407V191.609H382.668V153.538ZM421.199 189.352C418.239 187.726 415.777 185.33 414.075 182.417C412.359 179.481 411.502 176.2 411.502 172.574C411.502 168.947 412.359 165.667 414.075 162.732C415.776 159.819 418.239 157.422 421.199 155.797C424.21 154.109 427.587 153.265 431.331 153.265C435.074 153.265 438.452 154.099 441.466 155.768C444.424 157.381 446.883 159.771 448.577 162.68C450.302 165.617 451.165 168.916 451.163 172.577C451.162 176.239 450.3 179.539 448.577 182.477C446.883 185.385 444.424 187.776 441.466 189.389C438.449 191.059 435.071 191.893 431.331 191.892C427.59 191.89 424.213 191.044 421.199 189.352ZM440.001 187.15C442.543 185.734 444.653 183.657 446.105 181.139C447.592 178.581 448.336 175.725 448.337 172.572C448.339 169.418 447.594 166.563 446.105 164.006C444.651 161.492 442.541 159.419 440.001 158.005C437.42 156.557 434.531 155.833 431.334 155.833C428.138 155.833 425.239 156.557 422.64 158.005C420.084 159.413 417.962 161.491 416.505 164.016C415.014 166.571 414.268 169.427 414.268 172.581C414.268 175.736 415.014 178.592 416.505 181.149C417.963 183.673 420.084 185.751 422.64 187.159C425.239 188.608 428.138 189.332 431.334 189.332C434.531 189.332 437.42 188.605 440.001 187.15V187.15Z" fill="var(--fill-0, white)"/>
<g id="Group" opacity="0.25">
<path id="Vector_138" opacity="0.25" d="M400.209 65.3254C400.209 65.6457 400.304 65.9588 400.482 66.2251C400.661 66.4915 400.914 66.6991 401.211 66.8216C401.507 66.9442 401.833 66.9763 402.148 66.9138C402.463 66.8513 402.752 66.6971 402.979 66.4706C403.206 66.2441 403.361 65.9555 403.423 65.6413C403.486 65.3272 403.454 65.0015 403.331 64.7056C403.208 64.4097 403 64.1567 402.733 63.9788C402.466 63.8008 402.153 63.7058 401.832 63.7058C401.401 63.7058 400.988 63.8764 400.684 64.1802C400.38 64.4839 400.209 64.8958 400.209 65.3254ZM390.798 65.3254C390.798 65.6457 390.893 65.9588 391.072 66.2251C391.25 66.4915 391.503 66.6991 391.8 66.8216C392.096 66.9442 392.423 66.9763 392.738 66.9138C393.052 66.8513 393.341 66.6971 393.568 66.4706C393.795 66.2441 393.95 65.9555 394.013 65.6413C394.075 65.3272 394.043 65.0015 393.92 64.7056C393.797 64.4097 393.589 64.1567 393.323 63.9788C393.056 63.8008 392.742 63.7058 392.421 63.7058C391.99 63.7058 391.578 63.8764 391.273 64.1802C390.969 64.4839 390.798 64.8958 390.798 65.3254ZM381.387 65.3254C381.387 65.6457 381.482 65.9588 381.661 66.2251C381.839 66.4915 382.093 66.6991 382.389 66.8216C382.686 66.9442 383.012 66.9763 383.327 66.9138C383.642 66.8513 383.931 66.6971 384.158 66.4706C384.385 66.2441 384.539 65.9555 384.602 65.6413C384.664 65.3272 384.632 65.0015 384.51 64.7056C384.387 64.4097 384.179 64.1567 383.912 63.9788C383.645 63.8008 383.331 63.7058 383.01 63.7058C382.797 63.7058 382.586 63.7477 382.389 63.8291C382.192 63.9105 382.013 64.0298 381.863 64.1802C381.712 64.3306 381.592 64.5091 381.511 64.7056C381.429 64.9021 381.387 65.1127 381.387 65.3254V65.3254Z" fill="var(--fill-0, #4094F2)"/>
<path id="Vector_139" opacity="0.25" d="M373.597 66.9449C374.494 66.9449 375.22 66.2198 375.22 65.3254C375.22 64.4309 374.494 63.7058 373.597 63.7058C372.701 63.7058 371.975 64.4309 371.975 65.3254C371.975 66.2198 372.701 66.9449 373.597 66.9449Z" fill="var(--fill-0, #4094F2)"/>
<path id="Vector_140" opacity="0.25" d="M364.187 66.9449C365.083 66.9449 365.81 66.2198 365.81 65.3254C365.81 64.4309 365.083 63.7058 364.187 63.7058C363.29 63.7058 362.564 64.4309 362.564 65.3254C362.564 66.2198 363.29 66.9449 364.187 66.9449Z" fill="var(--fill-0, #4094F2)"/>
<path id="Vector_141" opacity="0.25" d="M397.252 73.3204C397.252 73.6409 397.346 73.9543 397.525 74.221C397.703 74.4876 397.956 74.6955 398.253 74.8183C398.55 74.9411 398.876 74.9734 399.191 74.911C399.506 74.8485 399.795 74.6942 400.022 74.4676C400.249 74.241 400.404 73.9522 400.467 73.6379C400.529 73.3235 400.497 72.9977 400.374 72.7017C400.251 72.4057 400.042 72.1528 399.775 71.975C399.508 71.7972 399.194 71.7025 398.873 71.7029C398.443 71.7034 398.031 71.874 397.727 72.1772C397.423 72.4805 397.252 72.8916 397.252 73.3204V73.3204ZM387.841 73.3204C387.841 73.6409 387.936 73.9542 388.114 74.2208C388.292 74.4874 388.545 74.6952 388.842 74.8181C389.138 74.941 389.465 74.9734 389.779 74.9111C390.094 74.8488 390.384 74.6947 390.611 74.4683C390.838 74.2419 390.993 73.9533 391.056 73.6391C391.118 73.3249 391.086 72.9992 390.964 72.7031C390.841 72.4071 390.633 72.154 390.366 71.9759C390.099 71.7979 389.785 71.7029 389.464 71.7029C389.251 71.7023 389.04 71.7438 388.842 71.8248C388.645 71.9059 388.466 72.0249 388.315 72.1751C388.164 72.3254 388.044 72.5038 387.962 72.7004C387.88 72.8969 387.838 73.1076 387.837 73.3204H387.841ZM378.43 73.3204C378.43 73.6409 378.525 73.9542 378.703 74.2208C378.881 74.4874 379.134 74.6952 379.431 74.8181C379.727 74.941 380.054 74.9734 380.369 74.9111C380.684 74.8488 380.973 74.6947 381.2 74.4683C381.427 74.2419 381.582 73.9533 381.645 73.6391C381.708 73.3249 381.676 72.9992 381.553 72.7031C381.43 72.4071 381.222 72.154 380.955 71.9759C380.688 71.7979 380.374 71.7029 380.053 71.7029C379.84 71.7023 379.629 71.7438 379.432 71.8248C379.234 71.9059 379.055 72.0249 378.904 72.1751C378.753 72.3254 378.633 72.5038 378.551 72.7004C378.469 72.8969 378.427 73.1076 378.426 73.3204H378.43ZM369.02 73.3204C369.019 73.6409 369.114 73.9542 369.292 74.2208C369.47 74.4874 369.724 74.6952 370.02 74.8181C370.317 74.941 370.643 74.9734 370.958 74.9111C371.273 74.8488 371.562 74.6947 371.789 74.4683C372.017 74.2419 372.171 73.9533 372.234 73.6391C372.297 73.3249 372.265 72.9992 372.142 72.7031C372.019 72.4071 371.811 72.154 371.544 71.9759C371.277 71.7979 370.964 71.7029 370.643 71.7029C370.429 71.7023 370.218 71.7438 370.021 71.8248C369.824 71.9059 369.644 72.0249 369.493 72.1751C369.342 72.3254 369.222 72.5038 369.14 72.7004C369.058 72.8969 369.016 73.1076 369.016 73.3204H369.02ZM359.609 73.3204C359.61 73.6405 359.706 73.953 359.885 74.2186C360.064 74.4842 360.318 74.6908 360.615 74.8125C360.912 74.9342 361.238 74.9654 361.552 74.9022C361.866 74.8391 362.155 74.6844 362.381 74.4576C362.608 74.2309 362.762 73.9423 362.824 73.6283C362.886 73.3143 362.854 72.989 362.731 72.6934C362.608 72.3978 362.4 72.1452 362.133 71.9675C361.866 71.7898 361.553 71.695 361.232 71.695C361.018 71.6944 360.806 71.7361 360.608 71.8177C360.41 71.8992 360.231 72.0189 360.08 72.17C359.928 72.3211 359.809 72.5005 359.727 72.6979C359.646 72.8954 359.604 73.1069 359.605 73.3204H359.609ZM350.196 73.3204C350.196 73.6409 350.291 73.9542 350.469 74.2208C350.647 74.4874 350.9 74.6952 351.197 74.8181C351.493 74.941 351.82 74.9734 352.134 74.9111C352.449 74.8488 352.739 74.6947 352.966 74.4683C353.193 74.2419 353.348 73.9533 353.411 73.6391C353.473 73.3249 353.441 72.9992 353.319 72.7031C353.196 72.4071 352.988 72.154 352.721 71.9759C352.454 71.7979 352.14 71.7029 351.819 71.7029C351.606 71.7023 351.395 71.7438 351.197 71.8248C351 71.9059 350.821 72.0249 350.67 72.1751C350.519 72.3254 350.399 72.5038 350.317 72.7004C350.235 72.8969 350.193 73.1076 350.192 73.3204H350.196Z" fill="var(--fill-0, #4094F2)"/>
</g>
<g id="Group_2" opacity="0.25">
<path id="Vector_142" opacity="0.25" d="M277.402 316.011C277.723 316.011 278.037 315.916 278.304 315.738C278.57 315.56 278.778 315.307 278.901 315.011C279.024 314.715 279.056 314.389 278.994 314.075C278.931 313.761 278.776 313.473 278.549 313.246C278.322 313.02 278.033 312.865 277.719 312.803C277.404 312.74 277.077 312.772 276.781 312.895C276.484 313.018 276.231 313.225 276.053 313.492C275.874 313.758 275.779 314.071 275.779 314.391C275.779 314.821 275.95 315.233 276.254 315.536C276.559 315.84 276.971 316.011 277.402 316.011ZM277.402 325.402C277.723 325.402 278.037 325.307 278.304 325.129C278.57 324.951 278.778 324.698 278.901 324.403C279.024 324.107 279.056 323.781 278.994 323.467C278.931 323.153 278.776 322.864 278.549 322.638C278.322 322.411 278.033 322.257 277.719 322.194C277.404 322.132 277.077 322.164 276.781 322.286C276.484 322.409 276.231 322.617 276.053 322.883C275.874 323.149 275.779 323.462 275.779 323.783C275.78 324.212 275.952 324.623 276.256 324.925C276.56 325.228 276.972 325.398 277.402 325.398V325.402ZM277.402 334.794C277.723 334.794 278.037 334.699 278.304 334.521C278.57 334.343 278.778 334.09 278.901 333.794C279.024 333.498 279.056 333.172 278.994 332.858C278.931 332.544 278.776 332.255 278.549 332.029C278.322 331.802 278.033 331.648 277.719 331.586C277.404 331.523 277.077 331.555 276.781 331.678C276.484 331.8 276.231 332.008 276.053 332.274C275.874 332.541 275.779 332.854 275.779 333.174C275.78 333.603 275.952 334.014 276.256 334.317C276.56 334.62 276.972 334.79 277.402 334.79V334.794Z" fill="var(--fill-0, #4094F2)"/>
<path id="Vector_143" opacity="0.25" d="M277.402 344.183C278.298 344.183 279.025 343.458 279.025 342.564C279.025 341.669 278.298 340.944 277.402 340.944C276.506 340.944 275.779 341.669 275.779 342.564C275.779 343.458 276.506 344.183 277.402 344.183Z" fill="var(--fill-0, #4094F2)"/>
<path id="Vector_144" opacity="0.25" d="M277.402 353.575C278.298 353.575 279.025 352.85 279.025 351.955C279.025 351.061 278.298 350.336 277.402 350.336C276.506 350.336 275.779 351.061 275.779 351.955C275.779 352.85 276.506 353.575 277.402 353.575Z" fill="var(--fill-0, #4094F2)"/>
<path id="Vector_145" opacity="0.25" d="M285.411 318.96C285.733 318.96 286.047 318.865 286.314 318.688C286.581 318.51 286.789 318.257 286.912 317.961C287.035 317.665 287.068 317.339 287.005 317.025C286.943 316.71 286.788 316.422 286.561 316.195C286.334 315.968 286.045 315.814 285.73 315.752C285.415 315.689 285.088 315.721 284.791 315.844C284.495 315.967 284.241 316.175 284.063 316.442C283.885 316.708 283.79 317.022 283.791 317.342C283.791 317.771 283.962 318.182 284.266 318.485C284.57 318.789 284.982 318.959 285.411 318.96V318.96ZM285.411 328.353C285.732 328.353 286.046 328.259 286.314 328.081C286.581 327.903 286.789 327.651 286.912 327.355C287.035 327.059 287.068 326.733 287.005 326.419C286.943 326.104 286.789 325.816 286.562 325.589C286.335 325.362 286.046 325.208 285.731 325.145C285.416 325.083 285.089 325.115 284.793 325.237C284.496 325.36 284.243 325.567 284.064 325.834C283.886 326.1 283.791 326.413 283.791 326.734C283.791 327.163 283.961 327.574 284.265 327.878C284.569 328.182 284.981 328.353 285.411 328.353V328.353ZM285.411 337.745C285.732 337.745 286.046 337.65 286.314 337.473C286.581 337.295 286.789 337.042 286.912 336.746C287.035 336.45 287.068 336.125 287.005 335.81C286.943 335.496 286.789 335.207 286.562 334.98C286.335 334.754 286.046 334.599 285.731 334.537C285.416 334.474 285.089 334.506 284.793 334.628C284.496 334.751 284.243 334.959 284.064 335.225C283.886 335.491 283.791 335.805 283.791 336.125C283.793 336.553 283.964 336.962 284.268 337.264C284.572 337.566 284.983 337.736 285.411 337.737V337.745ZM285.411 347.136C285.732 347.136 286.046 347.042 286.314 346.864C286.581 346.686 286.789 346.433 286.912 346.138C287.035 345.842 287.068 345.516 287.005 345.202C286.943 344.887 286.789 344.599 286.562 344.372C286.335 344.145 286.046 343.991 285.731 343.928C285.416 343.865 285.089 343.897 284.793 344.02C284.496 344.142 284.243 344.35 284.064 344.616C283.886 344.883 283.791 345.196 283.791 345.516C283.791 345.946 283.961 346.357 284.265 346.661C284.569 346.965 284.981 347.135 285.411 347.136V347.136ZM285.411 356.527C285.732 356.528 286.046 356.433 286.314 356.255C286.581 356.078 286.789 355.825 286.912 355.529C287.035 355.233 287.068 354.907 287.005 354.593C286.943 354.279 286.789 353.99 286.562 353.763C286.335 353.537 286.046 353.382 285.731 353.32C285.416 353.257 285.089 353.289 284.793 353.411C284.496 353.534 284.243 353.742 284.064 354.008C283.886 354.274 283.791 354.587 283.791 354.908C283.791 355.337 283.961 355.749 284.265 356.052C284.569 356.356 284.981 356.527 285.411 356.527V356.527ZM285.411 365.919C285.732 365.919 286.046 365.825 286.314 365.647C286.581 365.469 286.789 365.216 286.912 364.92C287.035 364.625 287.068 364.299 287.005 363.985C286.943 363.67 286.789 363.382 286.562 363.155C286.335 362.928 286.046 362.774 285.731 362.711C285.416 362.648 285.089 362.68 284.793 362.803C284.496 362.925 284.243 363.133 284.064 363.399C283.886 363.666 283.791 363.979 283.791 364.299C283.791 364.728 283.961 365.14 284.265 365.444C284.569 365.747 284.981 365.918 285.411 365.919V365.919Z" fill="var(--fill-0, #4094F2)"/>
</g>
<path id="Vector_146" d="M474.026 182.39C476.33 182.372 478.38 182.253 479.429 182.032C480.198 181.867 480.949 181.628 481.672 181.319C482.211 181.088 482.736 180.824 483.243 180.529C483.924 180.147 484.567 179.703 485.167 179.204L502.227 179.895C502.987 176.684 502.375 172.181 502.227 171.416C502.227 171.416 486.495 172.192 484.237 170.312C484.213 170.298 484.192 170.281 484.173 170.261C484.151 170.227 484.128 170.188 484.106 170.148C483.732 169.587 482.851 169.026 481.784 168.586C480.975 168.256 480.135 168.007 479.277 167.843C477.211 167.448 474.895 162.197 473.749 162.803C472.603 163.409 473.12 166.83 474.499 167.901C475.879 168.971 474.895 170.19 473.235 170.19H472.712C469.391 170.19 459.119 170.241 458.858 171.9C458.688 172.982 462.951 173.389 466.258 173.543C462.205 173.504 456.394 173.656 456.808 174.857C457.126 175.779 463.006 176.346 466.292 176.634C464.022 176.646 459.533 176.832 459.515 177.608C459.482 179.285 464.135 179.516 467.273 179.482C465.407 179.63 463.284 179.998 463.153 180.893C462.999 181.981 469.094 182.435 474.026 182.39Z" fill="var(--fill-0, #FB8A77)"/>
<path id="Vector_147" opacity="0.25" d="M471.879 173.759C471.879 173.759 471.869 173.759 471.865 173.759L466.749 173.411L471.877 173.474C471.887 173.474 472.075 172.408 472.243 171.894C472.123 172.66 472.057 173.434 472.045 174.209C472.045 174.495 472.045 174.784 472.045 175.07C472.043 175.074 471.865 173.907 471.879 173.759ZM471.879 176.988H471.869L466.753 176.64L471.845 176.703C471.826 176.269 471.897 175.835 472.053 175.429C472.053 175.795 472.075 176.16 472.107 176.524C472.139 176.967 472.205 177.406 472.304 177.839C472.239 177.855 471.919 177.29 471.865 176.988H471.879ZM472.526 179.522L467.398 179.488L472.483 179.239C472.435 179.109 472.31 178.206 472.39 178.193C472.439 178.39 472.489 178.588 472.542 178.785C472.74 179.528 472.991 180.261 473.25 180.991C472.987 180.509 472.542 179.522 472.52 179.522H472.526Z" fill="var(--fill-0, #231F20)"/>
<path id="Vector_148" d="M288.497 98.6566C288.497 98.6566 288.321 98.8304 288.038 99.1227C288.028 97.991 287.769 96.7131 286.652 96.6124C284.632 96.4287 278.952 104.179 280.715 104.908C281.507 105.234 283.015 104.467 284.444 103.525C283.454 105.105 283.721 107.278 285.271 107.538C287.569 107.934 288.784 105.471 289.882 104.068C288.54 106.197 287.79 109.762 289.37 109.699C291.664 109.608 294.351 104.884 294.351 104.884C294.351 104.884 291.966 108.727 294.351 109.644C296.356 110.412 298.363 103.043 298.363 103.043C298.363 103.043 295.101 94.904 288.497 98.6566Z" fill="var(--fill-0, #FB8A77)"/>
</g>
</g>
<defs>
<filter id="filter0_d_0_4" x="-0.000808001" y="0" width="715" height="486" filterUnits="userSpaceOnUse" color-interpolation-filters="sRGB">
<feFlood flood-opacity="0" result="BackgroundImageFix"/>
<feColorMatrix in="SourceAlpha" type="matrix" values="0 0 0 0 0 0 0 0 0 0 0 0 0 0 0 0 0 0 127 0" result="hardAlpha"/>
<feOffset dy="4"/>
<feGaussianBlur stdDeviation="2"/>
<feComposite in2="hardAlpha" operator="out"/>
<feColorMatrix type="matrix" values="0 0 0 0 0 0 0 0 0 0 0 0 0 0 0 0 0 0 0.25 0"/>
<feBlend mode="normal" in2="BackgroundImageFix" result="effect1_dropShadow_0_4"/>
<feBlend mode="normal" in="SourceGraphic" in2="effect1_dropShadow_0_4" result="shape"/>
</filter>
<clipPath id="clip0_0_4">
<rect width="707" height="478" fill="white" transform="translate(3.99919)"/>
</clipPath>
</defs>
</svg>
